<svg id="svg" xmlns="http://www.w3.org/2000/svg" xmlns:xlink="http://www.w3.org/1999/xlink" width="400" height="392.8125" viewBox="0, 0, 400,392.8125"><g id="svgg"><path id="path0" d="M121.897 85.995 C 117.531 89.466,117.262 90.969,120.571 93.408 C 127.195 98.290,148.140 101.795,149.501 98.249 C 149.996 96.956,147.065 93.548,144.235 92.126 C 143.539 91.776,142.750 91.298,142.484 91.065 C 140.291 89.145,129.703 85.104,126.169 84.839 L 123.594 84.646 121.897 85.995 M326.284 96.208 C 323.087 98.860,322.843 112.500,325.993 112.500 C 329.289 112.500,333.881 99.068,331.576 96.172 C 330.573 94.911,327.826 94.930,326.284 96.208 M126.900 103.930 C 123.682 104.803,122.282 106.064,121.289 108.986 C 119.484 114.297,121.199 116.274,129.082 117.973 C 140.618 120.459,142.479 120.966,145.699 122.497 C 157.274 128.002,163.582 126.994,160.192 120.183 C 154.911 109.568,137.481 101.059,126.900 103.930 M271.563 107.094 C 256.507 112.531,253.235 122.338,256.516 152.188 C 257.073 157.258,257.604 163.727,257.695 166.563 C 257.913 173.304,257.846 173.237,260.096 168.977 C 261.651 166.032,262.939 164.223,266.653 159.765 C 273.261 151.835,276.084 146.578,276.849 140.781 C 280.374 114.047,278.869 104.455,271.563 107.094 M326.014 120.690 C 325.595 121.196,323.623 125.481,322.665 127.969 C 322.268 129.000,321.506 130.758,320.972 131.875 C 319.171 135.642,319.819 138.087,322.524 137.724 C 325.875 137.274,326.613 134.885,326.959 123.376 C 327.033 120.909,326.675 119.892,326.014 120.690 M293.730 121.789 C 290.072 125.955,288.832 129.910,290.287 132.763 C 292.269 136.647,296.320 133.319,298.025 126.409 C 299.218 121.574,296.493 118.643,293.730 121.789 M239.844 124.673 C 234.223 125.982,228.551 132.856,227.182 140.017 C 225.314 149.789,225.694 159.737,228.758 181.250 C 229.909 189.325,230.358 193.628,230.621 199.063 C 230.844 203.705,231.121 205.711,232.449 212.344 C 233.310 216.641,234.461 222.969,235.007 226.406 C 236.183 233.806,236.253 233.938,237.173 230.456 C 238.020 227.250,246.623 201.119,248.229 196.875 C 249.498 193.522,251.941 185.485,252.550 182.656 C 253.944 176.185,251.090 142.027,248.399 132.973 C 246.498 126.579,243.625 123.792,239.844 124.673 M166.176 126.099 C 165.291 126.595,164.714 127.970,165.195 128.436 C 166.364 129.567,174.739 133.463,174.531 132.779 C 174.233 131.798,173.243 130.174,172.634 129.669 C 172.369 129.449,171.964 128.821,171.736 128.274 C 170.899 126.271,167.938 125.112,166.176 126.099 M205.938 132.189 C 205.938 132.412,206.838 134.506,207.939 136.844 C 211.509 144.426,217.188 157.891,217.188 158.775 C 217.188 158.936,217.800 160.508,218.548 162.268 C 219.296 164.029,220.647 167.692,221.549 170.410 C 222.452 173.128,223.252 175.290,223.328 175.214 C 223.646 174.896,221.164 152.345,220.295 147.656 C 218.053 135.570,215.806 132.706,207.992 131.977 C 206.420 131.830,205.938 131.880,205.938 132.189 M195.593 137.795 C 191.485 140.516,191.764 142.812,196.770 147.488 C 201.653 152.047,207.352 155.302,205.085 152.236 C 204.480 151.418,203.369 148.168,201.413 141.503 C 200.055 136.873,198.490 135.876,195.593 137.795 M176.646 137.891 C 175.144 139.812,175.745 146.297,178.291 155.642 C 179.334 159.468,179.872 162.601,180.937 171.049 C 182.309 181.916,183.148 185.579,185.851 192.500 C 186.623 194.477,187.857 197.852,188.594 200.000 C 190.834 206.530,193.101 212.470,194.125 214.490 C 194.659 215.544,195.554 217.531,196.114 218.906 C 197.723 222.859,200.468 229.081,201.570 231.273 C 202.408 232.940,203.730 234.422,209.363 240.000 C 216.257 246.827,220.212 251.305,223.992 256.565 C 226.643 260.253,226.653 260.255,227.483 257.182 C 228.642 252.887,228.830 251.028,228.862 243.594 L 228.893 236.406 227.537 231.406 L 226.181 226.406 226.117 219.688 C 226.039 211.501,225.966 211.175,220.784 195.781 C 217.575 186.246,217.159 184.755,216.729 181.250 C 215.712 172.952,215.672 172.767,214.261 169.832 C 212.059 165.250,207.781 160.915,198.152 153.506 C 195.331 151.336,191.394 148.000,189.402 146.093 C 181.281 138.316,177.975 136.190,176.646 137.891 M277.813 153.345 C 268.803 163.443,264.512 169.340,260.579 177.028 C 257.860 182.343,253.504 192.907,252.662 196.226 C 252.223 197.959,251.255 200.958,250.510 202.891 C 248.825 207.267,247.752 210.561,245.294 218.906 C 244.231 222.516,242.897 226.805,242.331 228.438 C 240.607 233.409,238.125 242.500,238.125 243.844 C 238.125 244.541,238.471 248.919,238.893 253.571 C 239.602 261.382,240.137 268.634,240.947 281.387 C 241.120 284.126,241.347 286.446,241.449 286.543 C 241.662 286.743,241.582 286.861,244.161 282.550 C 245.224 280.772,246.531 278.593,247.065 277.706 C 265.770 246.663,273.275 231.849,279.384 213.906 C 287.194 190.965,288.245 172.279,282.726 154.465 C 282.000 152.123,281.266 150.164,281.094 150.112 C 280.922 150.060,279.445 151.515,277.813 153.345 M123.220 155.741 C 119.530 157.507,117.909 159.905,117.065 164.851 C 115.080 176.481,115.770 184.718,119.361 192.278 C 122.583 199.058,132.757 204.480,143.281 205.025 C 148.908 205.316,153.960 206.184,156.838 207.353 C 157.904 207.786,159.860 208.407,161.185 208.733 C 163.856 209.390,166.234 210.272,168.594 211.481 C 169.453 211.921,171.694 212.968,173.574 213.808 C 177.166 215.412,182.781 218.784,184.767 220.531 C 185.412 221.098,186.125 221.563,186.353 221.563 C 186.580 221.563,187.107 221.928,187.524 222.374 C 187.940 222.821,188.783 223.443,189.396 223.758 C 190.009 224.072,190.703 224.561,190.938 224.844 C 191.172 225.127,191.894 225.628,192.541 225.959 C 193.188 226.289,194.078 226.919,194.518 227.359 C 196.148 228.989,196.231 227.498,194.683 224.375 C 194.215 223.430,193.726 222.305,193.597 221.875 C 193.468 221.445,192.336 218.633,191.082 215.625 C 188.321 209.005,186.781 205.250,185.633 202.344 C 182.176 193.589,176.110 181.660,174.657 180.763 C 174.497 180.664,174.072 180.006,173.713 179.302 C 170.738 173.471,158.680 165.747,148.754 163.315 C 144.869 162.363,143.868 161.961,138.704 159.281 C 130.476 155.011,126.598 154.125,123.220 155.741 M144.754 212.809 C 141.014 214.507,141.529 224.792,145.353 224.792 C 147.488 224.792,151.553 219.264,151.559 216.352 C 151.567 213.165,148.029 211.323,144.754 212.809 M84.177 229.493 C 79.914 230.878,73.584 237.330,71.417 242.500 C 69.810 246.331,69.627 247.002,69.769 248.519 C 70.053 251.539,69.949 251.498,82.813 253.726 C 84.961 254.098,88.969 254.812,91.719 255.314 C 110.790 258.790,127.120 256.549,131.044 249.917 C 133.164 246.333,132.442 244.724,127.656 242.367 C 120.105 238.647,105.837 232.470,101.719 231.139 C 97.289 229.707,86.604 228.705,84.177 229.493 M207.178 244.297 C 207.173 244.426,208.376 246.922,209.852 249.844 C 214.636 259.313,217.371 269.570,217.769 279.531 L 217.969 284.531 223.594 284.716 C 226.688 284.817,230.116 285.073,231.213 285.284 C 232.362 285.505,233.324 285.551,233.483 285.392 C 234.644 284.231,225.929 264.621,222.547 260.783 C 221.972 260.130,221.229 259.019,220.898 258.313 C 218.626 253.485,207.274 241.887,207.178 244.297 M138.548 247.729 C 137.260 247.884,136.746 248.518,136.112 250.735 C 134.398 256.726,123.625 261.250,111.072 261.250 L 109.157 261.250 108.565 262.578 C 107.636 264.661,105.805 266.450,103.853 267.180 C 100.628 268.387,97.887 270.560,97.043 272.580 C 94.972 277.536,100.245 280.619,117.969 284.814 C 130.445 287.767,146.308 288.866,165.781 288.128 C 171.281 287.919,182.713 287.691,191.186 287.621 L 206.591 287.493 208.481 286.725 C 209.521 286.303,211.202 285.794,212.217 285.594 C 214.000 285.243,214.062 285.198,214.055 284.256 C 214.028 280.849,211.211 274.894,208.210 271.902 C 201.563 265.274,194.157 262.098,174.688 257.529 C 164.678 255.179,155.754 252.827,153.438 251.927 C 142.813 247.799,141.361 247.389,138.548 247.729 M86.406 276.602 C 85.203 276.918,82.953 277.396,81.406 277.664 C 65.378 280.438,60.585 284.446,64.386 291.897 C 65.545 294.168,68.834 294.973,73.183 294.050 C 75.302 293.601,85.954 288.486,87.881 286.994 C 88.520 286.499,90.240 285.185,91.705 284.074 C 94.529 281.931,95.515 280.536,95.171 279.166 C 94.564 276.746,90.445 275.541,86.406 276.602 M96.406 285.052 C 96.063 285.250,94.931 286.203,93.891 287.168 C 92.851 288.134,91.586 289.134,91.078 289.391 C 90.571 289.647,89.143 290.518,87.904 291.324 C 86.666 292.131,84.683 293.279,83.499 293.875 C 82.315 294.471,80.938 295.295,80.439 295.705 C 79.940 296.115,78.268 297.268,76.723 298.266 C 73.629 300.267,73.454 300.439,72.336 302.568 C 70.805 305.485,71.709 307.978,75.640 311.676 C 81.381 317.077,83.540 316.804,93.750 309.386 C 100.285 304.638,102.092 303.531,109.844 299.527 C 117.570 295.537,120.205 294.045,122.324 292.460 C 125.253 290.270,125.007 290.098,117.031 288.752 C 113.938 288.230,108.734 287.181,105.469 286.421 C 98.263 284.745,97.213 284.586,96.406 285.052 M187.188 299.878 C 181.945 301.141,171.328 303.719,163.594 305.606 C 155.859 307.494,147.914 309.336,145.938 309.701 C 134.485 311.815,117.450 318.216,108.820 323.648 C 107.776 324.306,105.425 325.758,103.597 326.875 C 99.511 329.372,98.550 330.126,97.933 331.319 C 96.075 334.911,104.270 337.680,110.313 335.502 C 113.212 334.456,118.219 332.458,120.834 331.303 C 122.066 330.758,123.261 330.312,123.490 330.312 C 123.719 330.312,124.820 329.879,125.938 329.351 C 127.055 328.822,131.273 327.288,135.313 325.943 C 139.352 324.597,144.836 322.662,147.500 321.643 C 150.164 320.624,153.047 319.604,153.906 319.377 C 154.766 319.150,156.018 318.691,156.690 318.357 C 157.361 318.023,158.627 317.537,159.502 317.277 C 160.378 317.018,161.765 316.466,162.585 316.050 C 163.404 315.635,166.217 314.370,168.835 313.240 C 179.540 308.616,189.132 303.626,192.656 300.848 C 193.172 300.442,194.297 299.640,195.156 299.066 C 197.064 297.793,197.008 297.838,196.849 297.697 C 196.777 297.634,192.430 298.615,187.188 299.878 " stroke="none" fill="#f3dbf1" fill-rule="evenodd"></path><path id="path1" d="M325.516 54.947 C 322.355 58.441,327.181 75.938,331.306 75.938 C 333.777 75.938,335.725 71.685,335.761 66.208 L 335.781 63.197 334.255 60.960 C 330.508 55.471,327.140 53.153,325.516 54.947 M122.947 65.101 C 114.942 68.920,119.427 74.537,137.551 83.392 C 143.238 86.171,146.909 88.158,147.813 88.945 C 151.775 92.398,154.375 94.235,154.375 93.581 C 154.375 93.262,153.048 90.775,151.508 88.208 C 150.658 86.792,149.467 84.542,148.859 83.208 C 144.053 72.647,144.340 73.127,140.625 69.457 C 138.886 67.739,137.605 66.806,135.659 65.842 L 133.038 64.542 128.784 64.443 C 124.820 64.351,124.424 64.396,122.947 65.101 M310.362 69.188 C 302.775 74.096,303.519 84.512,311.764 88.830 C 316.551 91.337,317.178 90.075,315.476 81.348 C 314.826 78.015,314.696 76.521,314.762 73.185 C 314.851 68.715,314.780 68.503,313.098 68.262 C 312.254 68.141,311.683 68.334,310.362 69.188 M291.316 81.863 C 285.071 86.387,285.575 93.232,292.406 96.682 C 295.338 98.163,296.409 96.971,296.133 92.534 C 295.445 81.470,294.561 79.512,291.316 81.863 M122.009 85.398 C 121.334 85.961,120.258 86.808,119.619 87.281 C 113.318 91.948,125.983 99.177,141.719 99.896 C 154.954 100.501,152.320 94.812,135.922 87.381 C 128.525 84.028,124.366 83.435,122.009 85.398 M130.232 85.476 C 132.039 86.016,141.806 90.471,142.484 91.065 C 142.750 91.298,143.539 91.776,144.235 92.126 C 147.065 93.548,149.996 96.956,149.501 98.249 C 148.140 101.795,127.195 98.290,120.571 93.408 C 117.262 90.969,117.531 89.466,121.897 85.995 L 123.594 84.646 126.169 84.839 C 127.586 84.945,129.414 85.232,130.232 85.476 M105.596 86.848 C 105.195 88.188,106.434 95.429,107.377 97.253 C 108.226 98.894,110.176 97.868,111.890 94.879 C 113.401 92.246,113.242 91.681,110.078 88.432 C 106.910 85.179,106.174 84.919,105.596 86.848 M328.203 95.224 C 328.676 95.295,329.449 95.295,329.922 95.224 C 330.395 95.152,330.008 95.094,329.063 95.094 C 328.117 95.094,327.730 95.152,328.203 95.224 M325.926 96.273 L 324.844 97.233 326.016 96.392 C 327.051 95.649,327.388 95.313,327.098 95.313 C 327.048 95.313,326.521 95.745,325.926 96.273 M313.095 97.781 C 304.504 100.529,301.013 108.598,306.470 113.096 C 313.607 118.979,319.682 116.645,320.632 107.656 C 321.478 99.656,318.682 95.993,313.095 97.781 M332.284 98.906 C 332.286 99.938,332.344 100.322,332.414 99.760 C 332.484 99.198,332.482 98.355,332.411 97.885 C 332.339 97.415,332.283 97.875,332.284 98.906 M324.403 98.778 C 324.192 99.484,324.077 100.118,324.147 100.189 C 324.217 100.259,324.448 99.739,324.659 99.034 C 324.870 98.329,324.986 97.694,324.915 97.624 C 324.845 97.553,324.615 98.073,324.403 98.778 M160.625 101.025 C 157.874 102.399,158.356 106.970,161.648 110.731 C 163.666 113.036,166.804 113.308,168.632 111.335 C 171.589 108.145,164.541 99.068,160.625 101.025 M287.909 102.779 C 283.003 106.333,283.001 112.094,287.905 113.112 C 294.357 114.451,301.018 108.483,298.040 104.031 C 296.533 101.778,290.346 101.013,287.909 102.779 M323.550 105.000 C 323.550 106.633,323.603 107.301,323.667 106.484 C 323.732 105.668,323.732 104.332,323.667 103.516 C 323.603 102.699,323.550 103.367,323.550 105.000 M132.102 103.663 C 132.657 103.732,133.642 103.733,134.290 103.666 C 134.938 103.598,134.484 103.541,133.281 103.540 C 132.078 103.539,131.548 103.594,132.102 103.663 M271.094 107.050 C 270.578 107.303,270.438 107.416,270.781 107.303 C 273.692 106.339,276.313 106.976,277.410 108.912 C 277.798 109.596,278.117 110.001,278.120 109.812 C 278.155 107.430,273.807 105.721,271.094 107.050 M330.051 107.670 C 329.527 108.819,329.627 109.064,330.193 108.019 C 330.458 107.531,330.615 107.074,330.544 107.002 C 330.472 106.931,330.251 107.231,330.051 107.670 M244.804 107.879 C 239.107 109.714,237.634 115.845,242.343 118.124 C 245.512 119.659,248.468 117.408,249.381 112.766 C 250.158 108.816,248.242 106.771,244.804 107.879 M268.438 108.125 C 267.836 108.454,267.484 108.724,267.656 108.724 C 267.828 108.724,268.461 108.454,269.063 108.125 C 269.664 107.796,270.016 107.526,269.844 107.526 C 269.672 107.526,269.039 107.796,268.438 108.125 M328.437 110.539 C 327.021 112.453,325.797 112.937,324.967 111.912 C 324.642 111.510,324.375 111.327,324.375 111.506 C 324.375 113.715,327.587 112.725,329.158 110.031 C 329.966 108.646,329.699 108.834,328.437 110.539 M264.510 110.234 C 261.578 112.308,257.155 117.766,257.195 119.262 C 257.199 119.410,257.678 118.647,258.261 117.566 C 259.535 115.201,261.860 112.413,263.405 111.397 C 264.808 110.474,266.154 109.391,265.910 109.382 C 265.808 109.378,265.179 109.762,264.510 110.234 M152.188 110.723 C 152.188 110.777,152.645 111.234,153.203 111.738 L 154.219 112.656 153.301 111.641 C 152.445 110.694,152.188 110.481,152.188 110.723 M178.530 113.822 C 173.717 114.817,174.615 121.160,180.202 125.623 C 187.817 131.707,190.829 129.313,186.717 120.445 C 184.333 115.303,181.694 113.168,178.530 113.822 M278.867 116.719 C 278.868 118.609,278.919 119.343,278.981 118.348 C 279.043 117.353,279.043 115.807,278.980 114.910 C 278.917 114.014,278.866 114.828,278.867 116.719 M156.563 115.156 C 157.146 115.758,157.693 116.250,157.779 116.250 C 157.865 116.250,157.458 115.758,156.875 115.156 C 156.292 114.555,155.745 114.063,155.659 114.063 C 155.573 114.063,155.979 114.555,156.563 115.156 M121.534 114.948 C 121.703 115.262,122.086 115.720,122.386 115.963 C 122.724 116.237,122.649 116.019,122.188 115.391 C 121.368 114.269,121.060 114.061,121.534 114.948 M217.491 116.381 C 210.492 119.006,209.521 121.715,214.130 125.755 C 219.843 130.764,222.876 129.195,222.941 121.198 C 222.981 116.309,221.403 114.914,217.491 116.381 M110.561 117.109 C 108.690 119.273,109.187 127.592,111.279 129.138 C 114.391 131.437,118.271 123.394,115.830 119.705 C 114.170 117.197,111.586 115.924,110.561 117.109 M325.898 120.547 C 325.518 121.031,325.526 121.049,325.966 120.706 C 326.550 120.250,326.875 120.482,326.875 121.354 C 326.875 121.698,326.962 121.892,327.069 121.785 C 327.333 121.521,326.929 120.000,326.595 120.000 C 326.447 120.000,326.134 120.246,325.898 120.547 M294.168 120.907 C 289.052 125.673,287.766 132.758,291.676 134.638 C 295.698 136.572,301.231 122.991,297.410 120.563 C 296.686 120.103,294.817 120.301,294.168 120.907 M297.445 121.028 C 300.269 124.430,295.313 135.956,291.728 134.323 C 288.327 132.773,289.270 126.869,293.730 121.789 C 294.824 120.544,296.721 120.155,297.445 121.028 M278.545 123.594 C 278.546 124.969,278.601 125.492,278.667 124.757 C 278.733 124.022,278.732 122.897,278.665 122.257 C 278.598 121.617,278.543 122.219,278.545 123.594 M161.323 123.438 C 161.323 124.039,161.387 124.285,161.465 123.984 C 161.544 123.684,161.544 123.191,161.465 122.891 C 161.387 122.590,161.323 122.836,161.323 123.438 M323.962 124.233 C 323.228 125.773,323.331 126.035,324.099 124.580 C 324.447 123.919,324.677 123.323,324.610 123.256 C 324.542 123.188,324.251 123.628,323.962 124.233 M326.972 125.156 C 326.974 126.188,327.032 126.572,327.101 126.010 C 327.171 125.448,327.170 124.605,327.098 124.135 C 327.027 123.665,326.970 124.125,326.972 125.156 M165.731 125.586 C 164.635 126.275,164.225 127.172,164.502 128.276 C 164.662 128.914,173.439 133.857,175.233 134.320 C 176.083 134.539,174.452 130.343,173.325 129.410 C 173.037 129.172,172.571 128.491,172.289 127.898 C 171.191 125.585,167.695 124.352,165.731 125.586 M132.583 126.089 C 125.021 128.208,123.297 133.763,127.452 142.629 C 130.559 149.259,138.742 155.570,147.344 157.970 C 148.375 158.257,150.344 158.963,151.719 159.538 C 155.892 161.284,158.184 162.214,160.291 163.016 C 164.346 164.559,168.466 166.935,171.474 169.464 C 174.882 172.329,174.828 172.344,175.118 168.488 C 175.638 161.597,173.682 151.275,170.638 144.844 C 170.150 143.813,169.320 142.055,168.794 140.938 C 166.150 135.324,160.096 131.012,150.375 127.820 C 145.105 126.090,135.808 125.185,132.583 126.089 M170.393 126.620 C 170.903 126.983,171.508 127.728,171.736 128.274 C 171.964 128.821,172.369 129.449,172.634 129.669 C 173.243 130.174,174.233 131.798,174.531 132.779 C 174.735 133.452,174.294 133.286,170.113 131.114 C 164.733 128.319,164.860 128.414,165.121 127.375 C 165.562 125.617,168.411 125.209,170.393 126.620 M255.398 127.188 C 255.398 127.961,255.459 128.277,255.533 127.891 C 255.608 127.504,255.608 126.871,255.533 126.484 C 255.459 126.098,255.398 126.414,255.398 127.188 M278.219 128.125 C 278.219 129.070,278.277 129.457,278.349 128.984 C 278.420 128.512,278.420 127.738,278.349 127.266 C 278.277 126.793,278.219 127.180,278.219 128.125 M322.535 127.535 C 322.342 128.087,322.239 128.594,322.306 128.660 C 322.373 128.727,322.585 128.330,322.778 127.778 C 322.970 127.226,323.073 126.719,323.006 126.652 C 322.939 126.585,322.727 126.982,322.535 127.535 M233.125 128.281 C 232.366 129.055,231.815 129.688,231.901 129.688 C 231.987 129.688,232.678 129.055,233.438 128.281 C 234.197 127.508,234.747 126.875,234.661 126.875 C 234.575 126.875,233.884 127.508,233.125 128.281 M326.672 130.313 C 326.672 131.773,326.726 132.371,326.791 131.641 C 326.857 130.910,326.857 129.715,326.791 128.984 C 326.726 128.254,326.672 128.852,326.672 130.313 M255.130 134.531 C 255.131 137.797,255.177 139.090,255.233 137.406 C 255.289 135.721,255.289 133.049,255.233 131.468 C 255.176 129.887,255.130 131.266,255.130 134.531 M321.462 130.171 C 320.728 131.710,320.831 131.972,321.599 130.517 C 321.947 129.857,322.177 129.261,322.110 129.193 C 322.042 129.126,321.751 129.566,321.462 130.171 M277.898 131.250 C 277.898 132.023,277.959 132.340,278.033 131.953 C 278.108 131.566,278.108 130.934,278.033 130.547 C 277.959 130.160,277.898 130.477,277.898 131.250 M205.636 132.109 C 205.642 132.410,205.863 133.008,206.126 133.438 C 206.448 133.962,206.536 134.013,206.392 133.594 C 205.824 131.927,205.826 131.922,207.078 131.792 L 208.281 131.668 206.953 131.615 C 205.873 131.572,205.627 131.665,205.636 132.109 M211.863 132.664 C 212.629 132.902,213.304 133.050,213.363 132.991 C 213.523 132.831,211.544 132.184,210.969 132.208 C 210.694 132.220,211.096 132.425,211.863 132.664 M215.210 134.498 C 216.063 135.266,217.067 136.575,217.484 137.466 C 217.895 138.343,218.287 139.005,218.355 138.936 C 218.878 138.413,214.805 133.125,213.879 133.125 C 213.771 133.125,214.370 133.743,215.210 134.498 M277.589 134.531 C 277.592 135.391,277.652 135.705,277.724 135.230 C 277.796 134.755,277.794 134.052,277.720 133.668 C 277.646 133.283,277.587 133.672,277.589 134.531 M319.773 135.313 C 319.773 136.086,319.834 136.402,319.908 136.016 C 319.983 135.629,319.983 134.996,319.908 134.609 C 319.834 134.223,319.773 134.539,319.773 135.313 M325.938 134.937 C 325.938 135.132,325.486 135.823,324.933 136.474 C 324.033 137.534,324.020 137.575,324.806 136.875 C 325.795 135.994,326.390 135.036,326.119 134.765 C 326.019 134.665,325.938 134.743,325.938 134.937 M207.218 135.781 C 207.218 135.953,207.767 137.148,208.438 138.438 C 209.108 139.727,209.657 140.641,209.657 140.469 C 209.657 140.297,209.108 139.102,208.438 137.813 C 207.767 136.523,207.218 135.609,207.218 135.781 M277.266 137.656 C 277.270 138.344,277.334 138.588,277.409 138.199 C 277.483 137.811,277.480 137.248,277.402 136.949 C 277.324 136.651,277.263 136.969,277.266 137.656 M320.439 137.422 C 321.063 138.159,322.574 138.365,323.421 137.829 C 323.715 137.643,323.412 137.605,322.555 137.720 C 321.537 137.856,321.077 137.762,320.540 137.308 L 319.844 136.719 320.439 137.422 M176.523 137.734 C 176.149 138.210,176.155 138.234,176.563 137.921 C 176.820 137.722,177.383 137.495,177.813 137.416 L 178.594 137.273 177.773 137.230 C 177.320 137.207,176.759 137.433,176.523 137.734 M180.634 138.338 C 181.927 139.217,185.586 142.456,189.402 146.101 C 191.394 148.004,195.331 151.336,198.152 153.506 C 209.223 162.024,213.681 166.946,215.498 172.656 C 215.730 173.386,215.904 173.637,215.917 173.259 C 216.044 169.327,209.526 161.954,198.244 153.267 C 195.473 151.133,191.535 147.797,189.494 145.852 C 184.988 141.562,180.653 137.813,180.197 137.813 C 180.012 137.813,180.209 138.049,180.634 138.338 M304.219 138.278 C 297.415 140.665,294.954 160.045,301.739 157.806 C 306.866 156.114,310.227 146.428,307.951 139.900 C 307.241 137.863,306.420 137.506,304.219 138.278 M218.481 139.688 C 218.481 139.945,218.602 140.438,218.750 140.781 C 218.919 141.175,219.019 141.233,219.019 140.938 C 219.019 140.680,218.898 140.188,218.750 139.844 C 218.581 139.450,218.481 139.392,218.481 139.688 M276.954 140.469 C 276.957 141.156,277.021 141.401,277.096 141.012 C 277.171 140.623,277.168 140.061,277.090 139.762 C 277.011 139.463,276.950 139.781,276.954 140.469 M175.402 141.719 C 175.404 142.578,175.465 142.893,175.537 142.418 C 175.609 141.943,175.607 141.239,175.532 140.855 C 175.458 140.471,175.400 140.859,175.402 141.719 M255.409 142.656 C 255.411 143.688,255.469 144.072,255.539 143.510 C 255.609 142.948,255.607 142.105,255.536 141.635 C 255.464 141.165,255.408 141.625,255.409 142.656 M275.865 144.928 C 275.183 146.824,275.393 147.034,276.106 145.168 C 276.407 144.381,276.593 143.677,276.521 143.604 C 276.448 143.532,276.153 144.127,275.865 144.928 M210.953 144.100 C 210.944 144.207,211.507 145.472,212.203 146.913 C 212.898 148.353,213.372 149.180,213.255 148.750 C 213.029 147.915,210.979 143.775,210.953 144.100 M255.704 145.781 C 255.707 146.469,255.771 146.713,255.846 146.324 C 255.921 145.936,255.918 145.373,255.840 145.074 C 255.761 144.776,255.700 145.094,255.704 145.781 M176.000 145.781 C 176.000 146.125,176.112 146.758,176.250 147.188 C 176.448 147.806,176.500 147.839,176.500 147.344 C 176.500 147.000,176.388 146.367,176.250 145.938 C 176.052 145.319,176.000 145.286,176.000 145.781 M250.704 146.406 C 250.707 147.094,250.771 147.338,250.846 146.949 C 250.921 146.561,250.918 145.998,250.840 145.699 C 250.761 145.401,250.700 145.719,250.704 146.406 M274.406 148.508 C 273.174 151.481,271.294 154.214,266.690 159.724 C 264.193 162.712,262.011 165.438,261.839 165.781 C 261.635 166.192,261.740 166.138,262.145 165.625 C 262.484 165.195,264.677 162.543,267.019 159.730 C 272.089 153.640,275.919 147.690,275.219 146.990 C 275.148 146.919,274.782 147.602,274.406 148.508 M256.023 149.063 C 256.023 149.836,256.084 150.152,256.158 149.766 C 256.233 149.379,256.233 148.746,256.158 148.359 C 256.084 147.973,256.023 148.289,256.023 149.063 M105.106 148.417 C 103.568 149.082,103.872 150.739,106.312 154.987 C 108.606 158.983,108.158 158.937,112.071 155.582 C 116.426 151.848,116.913 150.966,115.227 149.862 C 113.710 148.867,106.458 147.832,105.106 148.417 M276.681 154.297 C 271.873 159.703,271.296 160.385,269.080 163.281 C 268.159 164.484,267.269 165.645,267.102 165.859 C 266.935 166.074,266.868 166.250,266.954 166.250 C 267.039 166.250,267.999 165.090,269.086 163.672 C 272.556 159.145,280.509 150.156,281.044 150.156 C 281.214 150.156,281.612 150.859,281.928 151.719 C 282.245 152.578,282.423 152.859,282.323 152.344 C 282.092 151.154,281.499 149.920,281.094 149.789 C 280.922 149.733,278.936 151.762,276.681 154.297 M256.335 151.875 C 256.335 152.648,256.396 152.965,256.471 152.578 C 256.545 152.191,256.545 151.559,256.471 151.172 C 256.396 150.785,256.335 151.102,256.335 151.875 M221.010 151.875 C 221.010 152.477,221.074 152.723,221.153 152.422 C 221.232 152.121,221.232 151.629,221.153 151.328 C 221.074 151.027,221.010 151.273,221.010 151.875 M214.089 151.406 C 214.089 151.578,214.358 152.211,214.688 152.813 C 215.017 153.414,215.286 153.766,215.286 153.594 C 215.286 153.422,215.017 152.789,214.688 152.188 C 214.358 151.586,214.089 151.234,214.089 151.406 M225.734 153.750 C 225.734 155.211,225.788 155.809,225.854 155.078 C 225.920 154.348,225.920 153.152,225.854 152.422 C 225.788 151.691,225.734 152.289,225.734 153.750 M221.329 154.219 C 221.332 154.906,221.396 155.151,221.471 154.762 C 221.546 154.373,221.543 153.811,221.465 153.512 C 221.386 153.213,221.325 153.531,221.329 154.219 M256.652 155.156 C 256.654 156.016,256.715 156.330,256.787 155.855 C 256.859 155.380,256.857 154.677,256.782 154.293 C 256.708 153.908,256.650 154.297,256.652 155.156 M282.860 154.688 C 282.860 154.945,283.050 155.648,283.281 156.250 C 283.513 156.852,283.702 157.133,283.702 156.875 C 283.702 156.617,283.513 155.914,283.281 155.313 C 283.050 154.711,282.860 154.430,282.860 154.688 M178.154 156.094 C 178.143 156.266,178.334 157.039,178.578 157.813 C 178.821 158.586,179.019 158.938,179.018 158.594 C 179.015 157.942,178.187 155.547,178.154 156.094 M221.641 157.031 C 221.645 157.719,221.709 157.963,221.784 157.574 C 221.858 157.186,221.855 156.623,221.777 156.324 C 221.699 156.026,221.638 156.344,221.641 157.031 M256.960 158.125 C 256.960 158.898,257.021 159.215,257.096 158.828 C 257.170 158.441,257.170 157.809,257.096 157.422 C 257.021 157.035,256.960 157.352,256.960 158.125 M283.789 157.656 C 283.774 157.828,283.958 158.672,284.197 159.531 C 284.436 160.391,284.633 160.813,284.636 160.469 C 284.640 159.803,283.834 157.127,283.789 157.656 M221.954 159.844 C 221.957 160.531,222.021 160.776,222.096 160.387 C 222.171 159.998,222.168 159.436,222.090 159.137 C 222.011 158.838,221.950 159.156,221.954 159.844 M217.551 160.469 C 217.547 160.885,219.325 164.620,219.336 164.219 C 219.340 164.047,218.941 163.063,218.449 162.031 C 217.957 161.000,217.552 160.297,217.551 160.469 M257.281 161.875 C 257.281 162.820,257.340 163.207,257.411 162.734 C 257.483 162.262,257.483 161.488,257.411 161.016 C 257.340 160.543,257.281 160.930,257.281 161.875 M226.323 162.188 C 226.323 162.789,226.387 163.035,226.465 162.734 C 226.544 162.434,226.544 161.941,226.465 161.641 C 226.387 161.340,226.323 161.586,226.323 162.188 M222.273 162.813 C 222.273 163.586,222.334 163.902,222.408 163.516 C 222.483 163.129,222.483 162.496,222.408 162.109 C 222.334 161.723,222.273 162.039,222.273 162.813 M179.760 163.750 C 179.760 164.352,179.824 164.598,179.903 164.297 C 179.982 163.996,179.982 163.504,179.903 163.203 C 179.824 162.902,179.760 163.148,179.760 163.750 M257.607 166.094 C 257.608 167.469,257.663 167.992,257.729 167.257 C 257.795 166.522,257.794 165.397,257.727 164.757 C 257.660 164.117,257.606 164.719,257.607 166.094 M222.585 165.625 C 222.585 166.398,222.646 166.715,222.721 166.328 C 222.795 165.941,222.795 165.309,222.721 164.922 C 222.646 164.535,222.585 164.852,222.585 165.625 M219.554 165.313 C 219.669 165.742,219.893 166.305,220.053 166.563 C 220.254 166.888,220.279 166.793,220.133 166.250 C 220.018 165.820,219.794 165.258,219.635 165.000 C 219.433 164.674,219.409 164.770,219.554 165.313 M180.073 165.938 C 180.073 166.539,180.137 166.785,180.215 166.484 C 180.294 166.184,180.294 165.691,180.215 165.391 C 180.137 165.090,180.073 165.336,180.073 165.938 M285.385 165.938 C 285.385 166.539,285.449 166.785,285.528 166.484 C 285.607 166.184,285.607 165.691,285.528 165.391 C 285.449 165.090,285.385 165.336,285.385 165.938 M259.781 169.512 C 258.975 171.134,258.202 172.392,258.064 172.306 C 257.926 172.221,257.813 172.378,257.813 172.656 C 257.813 172.934,257.957 173.072,258.134 172.963 C 258.498 172.738,261.656 166.563,261.407 166.563 C 261.318 166.563,260.587 167.890,259.781 169.512 M265.938 167.500 C 265.570 168.016,265.340 168.438,265.426 168.438 C 265.512 168.438,265.883 168.016,266.250 167.500 C 266.617 166.984,266.847 166.563,266.761 166.563 C 266.675 166.563,266.305 166.984,265.938 167.500 M180.385 168.125 C 180.385 168.727,180.449 168.973,180.528 168.672 C 180.607 168.371,180.607 167.879,180.528 167.578 C 180.449 167.277,180.385 167.523,180.385 168.125 M252.898 168.438 C 252.898 169.211,252.959 169.527,253.033 169.141 C 253.108 168.754,253.108 168.121,253.033 167.734 C 252.959 167.348,252.898 167.664,252.898 168.438 M285.714 168.594 C 285.717 169.453,285.777 169.768,285.849 169.293 C 285.921 168.818,285.919 168.114,285.845 167.730 C 285.771 167.346,285.712 167.734,285.714 168.594 M222.891 168.906 C 222.895 169.594,222.959 169.838,223.034 169.449 C 223.108 169.061,223.105 168.498,223.027 168.199 C 222.949 167.901,222.888 168.219,222.891 168.906 M264.531 169.688 C 264.265 170.203,264.117 170.625,264.203 170.625 C 264.289 170.625,264.577 170.203,264.844 169.688 C 265.110 169.172,265.258 168.750,265.172 168.750 C 265.086 168.750,264.798 169.172,264.531 169.688 M180.710 170.938 C 180.710 171.711,180.771 172.027,180.846 171.641 C 180.920 171.254,180.920 170.621,180.846 170.234 C 180.771 169.848,180.710 170.164,180.710 170.938 M223.214 172.031 C 223.217 172.891,223.277 173.205,223.349 172.730 C 223.421 172.255,223.419 171.552,223.345 171.168 C 223.271 170.783,223.212 171.172,223.214 172.031 M286.031 172.188 C 286.031 173.133,286.090 173.520,286.161 173.047 C 286.233 172.574,286.233 171.801,286.161 171.328 C 286.090 170.855,286.031 171.242,286.031 172.188 M102.365 171.627 C 102.100 172.006,101.659 172.988,101.386 173.810 C 101.113 174.632,100.552 175.570,100.139 175.895 C 98.149 177.460,98.243 179.814,100.386 182.080 C 107.117 189.196,110.274 180.963,104.269 171.955 C 103.475 170.763,103.025 170.685,102.365 171.627 M116.010 171.875 C 116.010 172.477,116.074 172.723,116.153 172.422 C 116.232 172.121,116.232 171.629,116.153 171.328 C 116.074 171.027,116.010 171.273,116.010 171.875 M221.587 171.093 C 221.537 171.720,223.185 176.250,223.463 176.250 C 223.621 176.250,223.740 175.793,223.728 175.234 C 223.710 174.422,223.658 174.342,223.465 174.836 C 223.274 175.323,223.055 174.962,222.418 173.117 C 221.975 171.832,221.601 170.921,221.587 171.093 M263.517 171.328 C 263.075 171.886,262.453 173.125,262.614 173.125 C 262.689 173.125,263.041 172.633,263.396 172.031 C 264.041 170.938,264.101 170.591,263.517 171.328 M181.010 173.438 C 181.010 174.039,181.074 174.285,181.153 173.984 C 181.232 173.684,181.232 173.191,181.153 172.891 C 181.074 172.590,181.010 172.836,181.010 173.438 M253.214 174.531 C 253.217 175.391,253.277 175.705,253.349 175.230 C 253.421 174.755,253.419 174.052,253.345 173.668 C 253.271 173.283,253.212 173.672,253.214 174.531 M261.949 173.828 C 261.484 174.404,258.381 180.673,258.502 180.793 C 258.558 180.850,259.455 179.218,260.495 177.167 C 261.536 175.116,262.359 173.438,262.325 173.438 C 262.292 173.438,262.122 173.613,261.949 173.828 M216.010 175.000 C 216.010 175.602,216.074 175.848,216.153 175.547 C 216.232 175.246,216.232 174.754,216.153 174.453 C 216.074 174.152,216.010 174.398,216.010 175.000 M286.369 177.969 C 286.370 180.031,286.420 180.834,286.482 179.753 C 286.543 178.672,286.542 176.985,286.481 176.003 C 286.419 175.022,286.369 175.906,286.369 177.969 M181.323 175.938 C 181.323 176.539,181.387 176.785,181.465 176.484 C 181.544 176.184,181.544 175.691,181.465 175.391 C 181.387 175.090,181.323 175.336,181.323 175.938 M216.335 177.500 C 216.335 178.273,216.396 178.590,216.471 178.203 C 216.545 177.816,216.545 177.184,216.471 176.797 C 216.396 176.410,216.335 176.727,216.335 177.500 M252.891 179.844 C 252.895 180.531,252.959 180.776,253.034 180.387 C 253.108 179.998,253.105 179.436,253.027 179.137 C 252.949 178.838,252.888 179.156,252.891 179.844 M216.641 180.469 C 216.645 181.156,216.709 181.401,216.784 181.012 C 216.858 180.623,216.855 180.061,216.777 179.762 C 216.699 179.463,216.638 179.781,216.641 180.469 M257.863 182.045 C 257.340 183.194,257.440 183.439,258.006 182.394 C 258.270 181.906,258.428 181.449,258.356 181.377 C 258.285 181.306,258.063 181.606,257.863 182.045 M216.948 182.813 C 216.948 183.414,217.012 183.660,217.090 183.359 C 217.169 183.059,217.169 182.566,217.090 182.266 C 217.012 181.965,216.948 182.211,216.948 182.813 M295.348 182.682 C 293.348 185.224,290.948 198.125,292.475 198.125 C 293.868 198.125,300.313 188.428,300.313 186.333 C 300.313 183.072,296.973 180.616,295.348 182.682 M286.031 183.750 C 286.031 184.695,286.090 185.082,286.161 184.609 C 286.233 184.137,286.233 183.363,286.161 182.891 C 286.090 182.418,286.031 182.805,286.031 183.750 M217.209 184.714 C 217.222 185.129,217.359 185.750,217.515 186.094 C 217.712 186.529,217.740 186.340,217.607 185.469 C 217.386 184.018,217.178 183.622,217.209 184.714 M183.169 185.313 C 183.169 185.570,183.290 186.063,183.438 186.406 C 183.607 186.800,183.706 186.858,183.706 186.563 C 183.706 186.305,183.585 185.813,183.438 185.469 C 183.268 185.075,183.169 185.017,183.169 185.313 M256.563 185.030 C 256.563 185.103,255.928 186.625,255.153 188.411 C 254.377 190.198,253.794 191.710,253.856 191.773 C 253.919 191.835,254.619 190.380,255.413 188.538 C 256.207 186.697,256.791 185.124,256.710 185.043 C 256.629 184.962,256.563 184.956,256.563 185.030 M285.710 187.188 C 285.710 187.961,285.771 188.277,285.846 187.891 C 285.920 187.504,285.920 186.871,285.846 186.484 C 285.771 186.098,285.710 186.414,285.710 187.188 M183.788 187.500 C 183.783 187.758,183.971 188.391,184.207 188.906 C 184.760 190.113,184.768 189.552,184.219 188.125 C 183.987 187.523,183.793 187.242,183.788 187.500 M218.186 188.125 C 218.274 188.383,218.662 189.552,219.049 190.723 C 219.435 191.894,219.807 192.797,219.875 192.729 C 220.027 192.577,218.521 188.095,218.233 187.840 C 218.119 187.739,218.098 187.867,218.186 188.125 M184.867 190.625 C 184.982 191.055,185.206 191.617,185.365 191.875 C 185.567 192.201,185.591 192.105,185.446 191.563 C 185.331 191.133,185.107 190.570,184.947 190.313 C 184.746 189.987,184.721 190.082,184.867 190.625 M121.862 196.328 C 123.157 197.708,123.438 197.956,123.438 197.721 C 123.438 197.671,122.770 197.003,121.953 196.237 L 120.469 194.844 121.862 196.328 M187.054 196.250 C 187.169 196.680,187.393 197.242,187.553 197.500 C 187.754 197.826,187.779 197.730,187.633 197.188 C 187.518 196.758,187.294 196.195,187.135 195.938 C 186.933 195.612,186.909 195.707,187.054 196.250 M230.418 197.813 C 230.418 199.102,230.473 199.629,230.540 198.984 C 230.608 198.340,230.608 197.285,230.540 196.641 C 230.473 195.996,230.418 196.523,230.418 197.813 M251.473 199.442 C 251.189 200.332,251.008 201.112,251.071 201.175 C 251.134 201.239,251.426 200.569,251.719 199.688 C 252.012 198.806,252.193 198.026,252.121 197.954 C 252.049 197.883,251.758 198.552,251.473 199.442 M283.611 199.236 C 283.493 199.863,283.460 200.439,283.536 200.515 C 283.612 200.592,283.771 200.141,283.889 199.514 C 284.007 198.887,284.040 198.311,283.964 198.235 C 283.888 198.158,283.729 198.609,283.611 199.236 M188.788 201.250 C 188.783 201.508,188.971 202.141,189.207 202.656 C 189.760 203.863,189.768 203.302,189.219 201.875 C 188.987 201.273,188.793 200.992,188.788 201.250 M250.039 203.320 C 249.666 204.294,249.414 205.143,249.479 205.208 C 249.543 205.272,249.901 204.528,250.273 203.555 C 250.646 202.581,250.898 201.732,250.834 201.667 C 250.769 201.603,250.412 202.347,250.039 203.320 M86.719 203.854 C 81.778 206.149,87.448 211.364,92.874 209.515 C 96.504 208.278,96.888 205.031,93.518 204.071 C 91.471 203.489,87.761 203.370,86.719 203.854 M189.867 204.375 C 189.982 204.805,190.206 205.367,190.365 205.625 C 190.567 205.951,190.591 205.855,190.446 205.313 C 190.331 204.883,190.107 204.320,189.947 204.063 C 189.746 203.737,189.721 203.832,189.867 204.375 M223.798 204.688 C 223.798 204.945,223.987 205.648,224.219 206.250 C 224.450 206.852,224.640 207.133,224.640 206.875 C 224.640 206.617,224.450 205.914,224.219 205.313 C 223.987 204.711,223.798 204.430,223.798 204.688 M282.054 205.491 C 281.939 205.949,281.905 206.384,281.979 206.458 C 282.052 206.531,282.206 206.217,282.321 205.759 C 282.436 205.301,282.470 204.866,282.396 204.792 C 282.323 204.719,282.169 205.033,282.054 205.491 M143.828 205.224 C 144.301 205.295,145.074 205.295,145.547 205.224 C 146.020 205.152,145.633 205.094,144.688 205.094 C 143.742 205.094,143.355 205.152,143.828 205.224 M248.157 208.497 C 247.624 210.098,247.198 211.548,247.211 211.720 C 247.224 211.891,247.715 210.635,248.301 208.929 C 248.888 207.222,249.314 205.772,249.248 205.706 C 249.181 205.640,248.691 206.896,248.157 208.497 M190.804 206.875 C 190.919 207.305,191.143 207.867,191.303 208.125 C 191.504 208.451,191.529 208.355,191.383 207.813 C 191.268 207.383,191.044 206.820,190.885 206.563 C 190.683 206.237,190.659 206.332,190.804 206.875 M113.125 207.308 C 108.536 209.082,105.518 210.840,101.935 213.825 C 100.957 214.640,100.068 215.308,99.959 215.310 C 99.080 215.322,95.633 221.363,95.628 222.902 C 95.621 224.932,98.152 226.483,103.907 227.975 C 105.625 228.421,107.338 228.985,107.712 229.229 C 108.087 229.473,109.634 230.156,111.150 230.745 C 112.666 231.335,115.453 232.471,117.344 233.270 C 119.234 234.069,122.750 235.489,125.156 236.425 C 127.563 237.361,130.305 238.497,131.250 238.949 C 134.659 240.579,147.420 244.375,149.491 244.375 C 151.944 244.375,150.900 240.540,147.070 235.481 C 146.295 234.456,145.495 233.261,145.294 232.825 C 143.989 230.000,142.629 227.911,139.379 223.739 C 133.499 216.191,127.654 210.628,123.582 208.706 C 120.607 207.302,115.059 206.560,113.125 207.308 M281.278 208.153 C 281.067 208.859,280.952 209.493,281.022 209.564 C 281.092 209.634,281.323 209.114,281.534 208.409 C 281.745 207.704,281.861 207.069,281.790 206.999 C 281.720 206.928,281.490 207.448,281.278 208.153 M224.741 207.813 C 224.757 208.624,225.249 209.958,225.259 209.219 C 225.264 208.875,225.148 208.313,225.000 207.969 C 224.835 207.586,224.735 207.525,224.741 207.813 M191.563 208.857 C 191.563 209.716,195.560 218.479,195.609 217.728 C 195.618 217.596,195.012 216.260,194.263 214.759 C 193.514 213.259,192.659 211.293,192.363 210.391 C 191.917 209.032,191.563 208.352,191.563 208.857 M146.641 212.090 C 146.941 212.169,147.434 212.169,147.734 212.090 C 148.035 212.012,147.789 211.948,147.188 211.948 C 146.586 211.948,146.340 212.012,146.641 212.090 M144.122 212.821 C 143.044 213.478,142.165 215.093,142.219 216.318 C 142.239 216.775,142.351 216.603,142.530 215.841 C 142.964 213.997,143.383 213.432,144.791 212.793 C 145.507 212.467,145.883 212.199,145.625 212.196 C 145.367 212.192,144.691 212.474,144.122 212.821 M149.246 212.778 C 149.777 213.102,150.516 213.753,150.887 214.226 C 151.259 214.698,151.558 214.960,151.552 214.808 C 151.527 214.143,149.323 212.186,148.602 212.189 C 148.426 212.189,148.716 212.455,149.246 212.778 M246.741 212.991 C 246.626 213.449,246.592 213.884,246.666 213.958 C 246.740 214.031,246.894 213.717,247.009 213.259 C 247.124 212.801,247.158 212.366,247.084 212.292 C 247.010 212.219,246.856 212.533,246.741 212.991 M226.010 213.750 C 226.010 214.352,226.074 214.598,226.153 214.297 C 226.232 213.996,226.232 213.504,226.153 213.203 C 226.074 212.902,226.010 213.148,226.010 213.750 M246.116 215.179 C 246.001 215.637,245.967 216.072,246.041 216.145 C 246.115 216.219,246.269 215.904,246.384 215.446 C 246.499 214.988,246.533 214.553,246.459 214.480 C 246.385 214.406,246.231 214.721,246.116 215.179 M151.612 216.406 C 151.531 218.226,150.342 220.523,148.289 222.824 L 146.487 224.844 148.441 222.839 C 150.734 220.486,151.973 218.081,151.791 216.336 L 151.668 215.156 151.612 216.406 M226.368 218.750 C 226.368 220.727,226.419 221.535,226.481 220.547 C 226.543 219.559,226.543 217.941,226.481 216.953 C 226.419 215.965,226.368 216.773,226.368 218.750 M72.647 216.612 C 70.981 218.075,68.750 223.214,68.750 225.588 C 68.750 228.151,74.175 226.191,76.283 222.867 C 78.667 219.107,75.673 213.956,72.647 216.612 M278.006 218.006 C 277.559 219.335,277.247 220.476,277.312 220.542 C 277.378 220.607,277.797 219.573,278.244 218.244 C 278.691 216.915,279.003 215.774,278.938 215.708 C 278.872 215.643,278.453 216.677,278.006 218.006 M245.341 217.841 C 245.130 218.546,245.014 219.181,245.085 219.251 C 245.155 219.322,245.385 218.802,245.597 218.097 C 245.808 217.391,245.923 216.757,245.853 216.686 C 245.783 216.616,245.552 217.136,245.341 217.841 M141.897 218.932 C 141.909 219.777,142.034 220.750,142.176 221.094 C 142.326 221.461,142.364 220.880,142.268 219.688 C 142.068 217.230,141.867 216.819,141.897 218.932 M244.241 221.429 C 244.126 221.887,244.092 222.322,244.166 222.395 C 244.240 222.469,244.394 222.154,244.509 221.696 C 244.624 221.238,244.658 220.803,244.584 220.730 C 244.510 220.656,244.356 220.971,244.241 221.429 M276.462 222.046 C 275.728 223.585,275.831 223.847,276.599 222.392 C 276.947 221.732,277.177 221.136,277.110 221.068 C 277.042 221.001,276.751 221.441,276.462 222.046 M196.903 221.406 C 196.903 221.578,197.242 222.352,197.656 223.125 C 198.070 223.898,198.409 224.391,198.409 224.219 C 198.409 224.047,198.070 223.273,197.656 222.500 C 197.242 221.727,196.903 221.234,196.903 221.406 M160.606 222.645 C 151.472 223.975,148.769 228.038,151.867 235.781 C 155.324 244.422,160.397 248.137,175.156 252.836 C 190.308 257.660,203.954 263.277,206.984 265.938 C 208.783 267.518,211.708 269.348,211.989 269.071 C 212.740 268.328,210.674 261.208,207.929 255.079 C 205.926 250.608,204.978 249.017,200.718 242.981 C 192.577 231.445,174.799 221.455,163.774 222.222 C 163.503 222.241,162.077 222.431,160.606 222.645 M243.616 223.616 C 243.501 224.074,243.467 224.509,243.541 224.583 C 243.615 224.656,243.769 224.342,243.884 223.884 C 243.999 223.426,244.033 222.991,243.959 222.917 C 243.885 222.844,243.731 223.158,243.616 223.616 M226.007 224.531 C 225.995 225.391,226.187 226.586,226.433 227.188 C 226.835 228.169,226.859 228.185,226.668 227.344 C 226.551 226.828,226.359 225.633,226.242 224.688 L 226.029 222.969 226.007 224.531 M143.125 223.632 C 143.125 224.163,144.298 225.080,144.748 224.900 C 145.021 224.791,144.981 224.729,144.627 224.712 C 144.336 224.699,143.879 224.375,143.611 223.993 C 143.344 223.611,143.125 223.449,143.125 223.632 M275.051 225.170 C 274.527 226.319,274.627 226.564,275.193 225.519 C 275.458 225.031,275.615 224.574,275.544 224.502 C 275.472 224.431,275.251 224.731,275.051 225.170 M199.085 226.406 C 199.085 226.578,199.286 227.070,199.531 227.500 C 199.777 227.930,199.978 228.141,199.978 227.969 C 199.978 227.797,199.777 227.305,199.531 226.875 C 199.286 226.445,199.085 226.234,199.085 226.406 M241.755 229.255 C 241.478 230.067,241.306 230.785,241.372 230.851 C 241.438 230.917,241.719 230.307,241.995 229.495 C 242.272 228.683,242.444 227.965,242.378 227.899 C 242.312 227.833,242.031 228.443,241.755 229.255 M273.488 228.920 C 272.965 230.069,273.065 230.314,273.631 229.269 C 273.895 228.781,274.053 228.324,273.981 228.252 C 273.910 228.181,273.688 228.481,273.488 228.920 M200.000 228.557 C 200.000 228.893,200.930 230.625,201.110 230.625 C 201.196 230.625,201.034 230.168,200.750 229.609 C 200.169 228.469,200.000 228.231,200.000 228.557 M226.928 228.750 C 226.944 229.562,227.436 230.896,227.447 230.156 C 227.452 229.813,227.335 229.250,227.188 228.906 C 227.023 228.523,226.922 228.463,226.928 228.750 M89.770 229.287 C 90.245 229.359,90.948 229.357,91.332 229.282 C 91.717 229.208,91.328 229.150,90.469 229.152 C 89.609 229.154,89.295 229.215,89.770 229.287 M272.551 231.107 C 272.027 232.256,272.127 232.501,272.693 231.457 C 272.958 230.969,273.115 230.511,273.044 230.440 C 272.972 230.368,272.751 230.669,272.551 231.107 M240.488 233.145 C 240.193 234.196,240.010 235.114,240.081 235.185 C 240.152 235.256,240.449 234.452,240.742 233.398 C 241.035 232.345,241.218 231.427,241.150 231.358 C 241.081 231.289,240.783 232.093,240.488 233.145 M78.421 232.734 L 77.344 233.906 78.516 232.829 C 79.606 231.827,79.831 231.563,79.593 231.563 C 79.540 231.563,79.013 232.090,78.421 232.734 M271.309 233.921 C 270.368 235.859,270.472 236.130,271.442 234.266 C 271.876 233.433,272.177 232.698,272.112 232.633 C 272.046 232.567,271.685 233.147,271.309 233.921 M208.327 239.250 C 215.710 246.538,219.945 251.320,223.673 256.578 C 226.410 260.440,226.924 260.724,227.316 258.594 C 227.483 257.683,227.478 257.686,227.133 258.682 C 226.648 260.085,226.403 259.919,223.976 256.541 C 219.565 250.402,213.655 243.853,206.665 237.358 C 203.036 233.987,203.302 234.290,208.327 239.250 M228.330 234.531 C 228.435 235.219,228.572 235.840,228.635 235.911 C 228.872 236.180,228.695 234.506,228.423 233.906 C 228.226 233.471,228.197 233.660,228.330 234.531 M115.000 236.563 C 115.602 236.892,116.234 237.161,116.406 237.161 C 116.578 237.161,116.227 236.892,115.625 236.563 C 115.023 236.233,114.391 235.964,114.219 235.964 C 114.047 235.964,114.398 236.233,115.000 236.563 M63.666 236.599 C 62.608 237.199,60.938 241.068,60.938 242.919 C 60.938 246.516,64.701 248.017,65.607 244.781 C 66.878 240.240,65.736 235.426,63.666 236.599 M228.823 237.188 C 228.823 237.789,228.887 238.035,228.965 237.734 C 229.044 237.434,229.044 236.941,228.965 236.641 C 228.887 236.340,228.823 236.586,228.823 237.188 M239.241 237.679 C 239.126 238.137,239.092 238.572,239.166 238.645 C 239.240 238.719,239.394 238.404,239.509 237.946 C 239.624 237.488,239.658 237.053,239.584 236.980 C 239.510 236.906,239.356 237.221,239.241 237.679 M269.121 238.609 C 268.180 240.547,268.285 240.818,269.255 238.954 C 269.688 238.121,269.990 237.385,269.924 237.320 C 269.859 237.255,269.498 237.835,269.121 238.609 M120.938 239.219 C 121.367 239.464,121.859 239.665,122.031 239.665 C 122.203 239.665,121.992 239.464,121.563 239.219 C 121.133 238.973,120.641 238.772,120.469 238.772 C 120.297 238.772,120.508 238.973,120.938 239.219 M229.183 242.500 C 229.183 244.648,229.233 245.527,229.294 244.453 C 229.355 243.379,229.355 241.621,229.294 240.547 C 229.233 239.473,229.183 240.352,229.183 242.500 M238.310 240.857 C 237.956 242.037,237.810 243.355,237.887 244.688 L 238.005 246.719 238.065 244.509 C 238.098 243.293,238.352 241.633,238.629 240.820 C 238.906 240.007,239.069 239.278,238.991 239.200 C 238.914 239.122,238.607 239.868,238.310 240.857 M267.408 242.352 C 266.947 243.293,266.636 244.063,266.717 244.063 C 266.927 244.063,268.503 240.899,268.363 240.759 C 268.299 240.695,267.869 241.412,267.408 242.352 M206.875 244.315 C 206.875 244.626,207.088 245.154,207.349 245.487 C 207.786 246.047,207.794 246.026,207.445 245.212 C 207.134 244.487,207.147 244.280,207.518 244.045 C 207.890 243.810,207.873 243.759,207.422 243.755 C 207.101 243.752,206.875 243.983,206.875 244.315 M265.625 245.625 C 265.274 246.313,265.058 246.875,265.144 246.875 C 265.229 246.875,265.587 246.313,265.938 245.625 C 266.288 244.938,266.505 244.375,266.419 244.375 C 266.333 244.375,265.976 244.938,265.625 245.625 M238.210 248.125 C 238.210 248.898,238.271 249.215,238.346 248.828 C 238.420 248.441,238.420 247.809,238.346 247.422 C 238.271 247.035,238.210 247.352,238.210 248.125 M228.850 249.063 C 228.850 250.180,228.907 250.637,228.976 250.078 C 229.045 249.520,229.045 248.605,228.976 248.047 C 228.907 247.488,228.850 247.945,228.850 249.063 M264.063 248.438 C 263.712 249.125,263.495 249.688,263.581 249.688 C 263.667 249.688,264.024 249.125,264.375 248.438 C 264.726 247.750,264.942 247.188,264.856 247.188 C 264.771 247.188,264.413 247.750,264.063 248.438 M50.762 251.357 C 47.937 254.273,47.325 257.947,49.361 259.766 C 50.544 260.823,50.652 260.825,51.868 259.802 C 54.709 257.411,55.668 252.510,53.703 250.419 C 52.756 249.411,52.598 249.461,50.762 251.357 M238.531 251.563 C 238.531 252.508,238.590 252.895,238.661 252.422 C 238.733 251.949,238.733 251.176,238.661 250.703 C 238.590 250.230,238.531 250.617,238.531 251.563 M262.500 251.250 C 262.149 251.938,261.933 252.500,262.019 252.500 C 262.104 252.500,262.462 251.938,262.813 251.250 C 263.163 250.563,263.380 250.000,263.294 250.000 C 263.208 250.000,262.851 250.563,262.500 251.250 M228.510 252.813 C 228.510 253.414,228.574 253.660,228.653 253.359 C 228.732 253.059,228.732 252.566,228.653 252.266 C 228.574 251.965,228.510 252.211,228.510 252.813 M260.463 254.922 C 259.826 256.082,258.956 257.629,258.529 258.359 C 258.102 259.090,257.824 259.688,257.912 259.688 C 258.068 259.688,260.360 255.807,261.372 253.828 C 262.334 251.947,261.631 252.793,260.463 254.922 M238.835 254.688 C 238.835 255.461,238.896 255.777,238.971 255.391 C 239.045 255.004,239.045 254.371,238.971 253.984 C 238.896 253.598,238.835 253.914,238.835 254.688 M227.861 255.673 C 227.656 256.557,227.546 257.338,227.616 257.407 C 227.685 257.477,227.914 256.815,228.125 255.938 C 228.336 255.060,228.446 254.279,228.370 254.203 C 228.294 254.127,228.065 254.789,227.861 255.673 M63.839 257.192 C 58.139 260.041,57.401 272.542,62.775 275.218 C 67.824 277.732,87.229 273.236,96.319 267.447 C 106.251 261.121,106.271 261.134,82.344 258.425 C 77.703 257.900,72.548 257.195,70.888 256.860 C 66.864 256.047,66.056 256.085,63.839 257.192 M104.453 257.099 C 104.926 257.170,105.699 257.170,106.172 257.099 C 106.645 257.027,106.258 256.969,105.313 256.969 C 104.367 256.969,103.980 257.027,104.453 257.099 M111.797 257.096 C 112.184 257.170,112.816 257.170,113.203 257.096 C 113.590 257.021,113.273 256.960,112.500 256.960 C 111.727 256.960,111.410 257.021,111.797 257.096 M239.156 258.438 C 239.156 259.383,239.215 259.770,239.286 259.297 C 239.358 258.824,239.358 258.051,239.286 257.578 C 239.215 257.105,239.156 257.492,239.156 258.438 M239.464 262.031 C 239.467 262.891,239.527 263.205,239.599 262.730 C 239.671 262.255,239.669 261.552,239.595 261.168 C 239.521 260.783,239.462 261.172,239.464 262.031 M110.555 261.167 C 111.290 261.233,112.415 261.232,113.055 261.165 C 113.695 261.098,113.094 261.043,111.719 261.045 C 110.344 261.046,109.820 261.101,110.555 261.167 M255.303 263.828 C 253.615 266.702,253.689 266.563,253.852 266.563 C 253.929 266.563,254.590 265.543,255.322 264.297 C 257.010 261.423,256.936 261.563,256.773 261.563 C 256.696 261.563,256.035 262.582,255.303 263.828 M239.788 266.875 C 239.788 267.992,239.844 268.449,239.914 267.891 C 239.983 267.332,239.983 266.418,239.914 265.859 C 239.844 265.301,239.788 265.758,239.788 266.875 M226.313 266.712 C 226.687 267.482,227.046 268.058,227.112 267.992 C 227.253 267.851,225.991 265.313,225.779 265.313 C 225.699 265.313,225.939 265.942,226.313 266.712 M252.178 269.141 C 250.490 272.015,250.564 271.875,250.727 271.875 C 250.804 271.875,251.465 270.855,252.197 269.609 C 253.885 266.735,253.811 266.875,253.648 266.875 C 253.571 266.875,252.910 267.895,252.178 269.141 M240.100 271.250 C 240.100 272.367,240.157 272.824,240.226 272.266 C 240.295 271.707,240.295 270.793,240.226 270.234 C 240.157 269.676,240.100 270.133,240.100 271.250 M208.112 271.641 C 209.407 273.020,209.688 273.268,209.688 273.034 C 209.688 272.984,209.020 272.316,208.203 271.549 L 206.719 270.156 208.112 271.641 M249.962 272.891 C 249.758 273.277,249.386 273.945,249.137 274.375 C 248.702 275.124,248.705 275.131,249.210 274.531 C 249.832 273.791,250.707 272.188,250.488 272.188 C 250.403 272.188,250.167 272.504,249.962 272.891 M240.413 276.250 C 240.413 277.367,240.469 277.824,240.539 277.266 C 240.608 276.707,240.608 275.793,240.539 275.234 C 240.469 274.676,240.413 275.133,240.413 276.250 M49.484 275.792 C 49.119 276.743,49.563 281.699,50.106 282.731 C 52.208 286.732,59.562 284.675,58.969 280.252 C 58.595 277.460,50.334 273.576,49.484 275.792 M248.051 276.016 C 247.378 277.048,246.443 278.957,246.788 278.594 C 247.196 278.164,248.808 275.313,248.643 275.313 C 248.569 275.313,248.303 275.629,248.051 276.016 M96.563 275.851 C 96.563 276.032,96.852 276.513,97.206 276.919 L 97.850 277.656 97.301 276.719 C 96.578 275.485,96.563 275.467,96.563 275.851 M217.605 278.438 C 217.605 279.727,217.660 280.254,217.728 279.609 C 217.795 278.965,217.795 277.910,217.728 277.266 C 217.660 276.621,217.605 277.148,217.605 278.438 M240.732 280.781 C 240.733 282.156,240.788 282.680,240.854 281.945 C 240.920 281.210,240.919 280.085,240.852 279.445 C 240.785 278.805,240.731 279.406,240.732 280.781 M245.691 279.922 C 245.360 280.395,244.923 281.098,244.721 281.484 C 244.063 282.742,244.570 282.226,245.565 280.625 C 246.605 278.952,246.685 278.502,245.691 279.922 M68.125 280.938 C 67.523 281.267,67.172 281.536,67.344 281.536 C 67.516 281.536,68.148 281.267,68.750 280.938 C 69.352 280.608,69.703 280.339,69.531 280.339 C 69.359 280.339,68.727 280.608,68.125 280.938 M65.137 282.891 L 64.219 283.906 65.234 282.988 C 65.793 282.484,66.250 282.027,66.250 281.973 C 66.250 281.731,65.992 281.944,65.137 282.891 M240.992 285.372 C 240.933 286.960,241.263 287.456,241.884 286.708 C 242.209 286.316,242.192 286.268,241.782 286.425 C 241.389 286.576,241.264 286.340,241.168 285.260 L 241.047 283.906 240.992 285.372 M242.656 285.000 C 242.390 285.516,242.242 285.938,242.328 285.938 C 242.414 285.938,242.702 285.516,242.969 285.000 C 243.235 284.484,243.383 284.063,243.297 284.063 C 243.211 284.063,242.923 284.484,242.656 285.000 M94.149 286.290 C 92.987 287.343,91.332 288.619,90.471 289.124 C 89.610 289.629,88.273 290.451,87.500 290.949 C 86.727 291.448,85.109 292.369,83.906 292.997 C 82.703 293.624,81.075 294.607,80.288 295.181 C 79.501 295.755,77.575 297.067,76.007 298.096 C 69.805 302.168,69.415 305.977,74.649 311.344 C 80.613 317.459,83.736 317.413,92.344 311.085 C 100.509 305.082,100.253 305.243,108.750 300.761 C 121.158 294.214,124.416 292.145,124.632 290.673 C 124.776 289.690,123.567 289.281,117.656 288.311 C 114.906 287.859,111.145 287.141,109.297 286.714 C 107.449 286.287,104.426 285.587,102.578 285.159 C 97.246 283.924,96.676 284.000,94.149 286.290 M105.469 286.421 C 108.734 287.181,113.938 288.230,117.031 288.752 C 125.007 290.098,125.253 290.270,122.324 292.460 C 120.205 294.045,117.570 295.537,109.844 299.527 C 102.092 303.531,100.285 304.638,93.750 309.386 C 83.540 316.804,81.381 317.077,75.640 311.676 C 71.709 307.978,70.805 305.485,72.336 302.568 C 73.454 300.439,73.629 300.267,76.723 298.266 C 78.268 297.268,79.940 296.115,80.439 295.705 C 80.938 295.295,82.315 294.471,83.499 293.875 C 84.683 293.279,86.666 292.131,87.904 291.324 C 89.143 290.518,90.571 289.647,91.078 289.391 C 91.586 289.134,92.851 288.134,93.891 287.168 C 97.054 284.231,96.271 284.281,105.469 286.421 M131.176 287.409 C 131.564 287.483,132.127 287.480,132.426 287.402 C 132.724 287.324,132.406 287.263,131.719 287.266 C 131.031 287.270,130.787 287.334,131.176 287.409 M183.047 287.721 C 183.434 287.795,184.066 287.795,184.453 287.721 C 184.840 287.646,184.523 287.585,183.750 287.585 C 182.977 287.585,182.660 287.646,183.047 287.721 M201.176 287.721 C 201.564 287.796,202.127 287.793,202.426 287.715 C 202.724 287.636,202.406 287.575,201.719 287.579 C 201.031 287.582,200.787 287.646,201.176 287.721 M140.552 288.039 C 141.114 288.109,141.958 288.107,142.427 288.036 C 142.897 287.964,142.438 287.908,141.406 287.909 C 140.375 287.911,139.991 287.969,140.552 288.039 M172.891 288.042 C 173.707 288.107,175.043 288.107,175.859 288.042 C 176.676 287.978,176.008 287.925,174.375 287.925 C 172.742 287.925,172.074 287.978,172.891 288.042 M148.828 288.340 C 149.129 288.419,149.621 288.419,149.922 288.340 C 150.223 288.262,149.977 288.198,149.375 288.198 C 148.773 288.198,148.527 288.262,148.828 288.340 M161.953 288.340 C 162.254 288.419,162.746 288.419,163.047 288.340 C 163.348 288.262,163.102 288.198,162.500 288.198 C 161.898 288.198,161.652 288.262,161.953 288.340 M155.625 290.849 C 148.563 291.053,138.905 292.046,135.313 292.938 C 130.297 294.183,127.213 295.130,126.094 295.770 C 125.406 296.162,123.789 296.941,122.500 297.499 C 117.936 299.478,103.263 306.662,101.256 307.901 C 100.135 308.592,98.590 309.500,97.823 309.919 C 97.055 310.337,95.978 311.054,95.430 311.512 C 94.882 311.969,93.401 313.113,92.139 314.054 C 83.229 320.693,81.432 326.594,87.852 328.135 C 93.050 329.381,98.701 327.234,113.949 318.216 C 126.451 310.822,132.730 308.418,143.594 306.867 C 147.946 306.245,168.704 302.060,173.650 300.807 C 175.338 300.379,178.898 299.599,181.563 299.073 C 184.227 298.547,187.953 297.620,189.844 297.013 C 200.306 293.652,201.450 293.239,202.131 292.571 C 203.909 290.828,204.662 290.888,180.313 290.832 C 168.023 290.804,156.914 290.812,155.625 290.849 M69.297 294.596 C 69.684 294.670,70.316 294.670,70.703 294.596 C 71.090 294.521,70.773 294.460,70.000 294.460 C 69.227 294.460,68.910 294.521,69.297 294.596 M57.263 297.498 C 53.543 299.766,54.727 305.625,58.906 305.625 C 62.971 305.625,64.813 299.318,61.275 297.513 C 59.703 296.711,58.561 296.707,57.263 297.498 M201.835 299.274 C 201.179 300.075,194.312 305.136,192.208 306.370 C 184.497 310.889,160.859 320.272,149.063 323.496 C 147.773 323.849,146.197 324.401,145.559 324.725 C 144.922 325.048,144.236 325.313,144.036 325.313 C 143.836 325.313,142.881 325.651,141.914 326.065 C 140.947 326.480,138.539 327.409,136.563 328.131 C 134.586 328.853,132.336 329.761,131.563 330.149 C 130.789 330.537,129.242 331.174,128.125 331.564 C 121.288 333.952,109.987 339.242,108.203 340.889 C 102.905 345.781,113.598 347.115,122.839 342.716 C 124.114 342.109,126.352 341.058,127.813 340.379 C 129.273 339.700,135.320 336.857,141.250 334.062 C 155.352 327.412,157.562 326.432,162.031 324.842 C 164.094 324.108,166.977 323.008,168.438 322.397 C 169.898 321.786,172.641 320.843,174.531 320.301 C 176.422 319.760,178.672 318.927,179.531 318.450 C 180.391 317.973,182.768 316.835,184.813 315.920 C 186.859 315.005,189.320 313.668,190.282 312.950 C 191.244 312.231,192.594 311.354,193.281 311.001 C 196.351 309.426,202.813 301.445,202.813 299.229 C 202.813 298.600,202.371 298.620,201.835 299.274 M157.188 318.125 C 156.586 318.454,156.234 318.724,156.406 318.724 C 156.578 318.724,157.211 318.454,157.813 318.125 C 158.414 317.796,158.766 317.526,158.594 317.526 C 158.422 317.526,157.789 317.796,157.188 318.125 M71.532 318.672 C 70.757 320.704,73.112 326.569,74.881 327.013 C 76.515 327.423,78.415 325.019,78.431 322.521 C 78.448 319.793,72.392 316.415,71.532 318.672 M100.859 328.304 C 99.691 328.938,99.762 329.202,100.938 328.594 C 101.453 328.327,101.875 328.042,101.875 327.961 C 101.875 327.760,101.841 327.771,100.859 328.304 M104.927 336.476 C 105.489 336.546,106.333 336.545,106.802 336.473 C 107.272 336.402,106.813 336.345,105.781 336.347 C 104.750 336.349,104.366 336.407,104.927 336.476 M87.266 337.850 C 83.576 338.915,90.222 343.983,94.386 343.279 C 97.304 342.786,97.531 341.244,94.960 339.382 C 92.706 337.749,89.693 337.149,87.266 337.850 " stroke="none" fill="#ec108a" fill-rule="evenodd"></path><path id="path2" d="M321.875 37.839 C 318.885 38.403,316.588 39.120,313.389 40.489 C 310.775 41.608,307.067 43.859,306.284 44.803 C 306.051 45.083,305.694 45.313,305.490 45.313 C 304.594 45.313,298.619 50.848,295.009 55.024 C 283.040 68.866,275.268 74.317,255.938 82.427 C 248.473 85.559,243.861 87.381,241.094 88.292 C 239.375 88.857,236.597 89.823,234.920 90.437 C 233.244 91.052,231.797 91.545,231.704 91.532 C 230.996 91.440,213.562 100.264,211.494 101.761 C 210.340 102.597,208.976 103.563,208.464 103.906 C 205.231 106.077,203.436 107.531,200.420 110.421 L 197.020 113.679 195.836 111.762 C 195.184 110.707,194.166 109.211,193.573 108.438 C 192.980 107.664,191.977 106.258,191.344 105.313 C 180.476 89.076,155.210 65.678,138.281 56.173 C 135.708 54.728,126.919 50.625,126.397 50.625 C 126.317 50.625,125.372 50.215,124.298 49.715 C 122.195 48.735,119.696 47.839,118.438 47.615 C 118.008 47.538,117.375 47.383,117.031 47.270 C 116.688 47.157,116.222 47.101,115.997 47.144 C 115.772 47.188,115.100 47.063,114.504 46.866 C 113.081 46.396,106.601 46.247,104.219 46.628 C 103.188 46.793,101.992 46.973,101.563 47.028 C 94.577 47.917,89.825 52.601,86.350 62.023 C 85.516 64.284,84.493 70.361,84.401 73.594 C 84.376 74.453,84.248 78.797,84.116 83.246 C 83.983 87.696,83.981 93.110,84.111 95.277 C 85.089 111.656,85.080 126.151,84.087 132.500 C 83.939 133.445,83.820 134.500,83.822 134.844 C 83.823 135.188,83.668 136.222,83.477 137.142 C 83.285 138.063,83.208 138.944,83.305 139.101 C 83.402 139.259,83.331 139.845,83.146 140.405 C 82.961 140.965,82.742 142.122,82.659 142.977 C 82.576 143.832,82.376 145.305,82.214 146.250 C 81.806 148.639,81.450 150.130,80.312 154.219 C 79.683 156.482,79.333 157.956,79.221 158.819 C 79.160 159.287,79.033 159.920,78.939 160.225 C 78.844 160.531,78.706 161.273,78.631 161.875 C 78.557 162.477,78.186 164.094,77.808 165.469 C 77.429 166.844,76.994 168.566,76.841 169.297 C 76.173 172.483,75.946 173.679,75.763 175.000 C 75.656 175.773,75.353 177.461,75.090 178.750 C 74.828 180.039,74.566 181.445,74.508 181.875 C 74.451 182.305,74.268 183.289,74.102 184.063 C 73.937 184.836,73.874 185.838,73.963 186.290 C 74.052 186.742,73.961 187.418,73.761 187.793 C 73.528 188.227,73.394 190.229,73.392 193.310 L 73.387 198.146 68.758 200.465 C 55.495 207.107,47.837 215.223,41.481 229.375 C 40.840 230.801,39.310 236.179,38.857 238.594 C 38.793 238.938,38.602 239.992,38.434 240.938 C 38.265 241.883,37.973 243.500,37.784 244.531 C 36.917 249.267,36.498 267.350,37.129 272.813 C 37.318 274.445,37.550 276.484,37.646 277.344 C 37.741 278.203,37.899 279.117,37.997 279.375 C 38.094 279.633,38.238 280.530,38.317 281.369 C 38.395 282.208,38.601 283.160,38.775 283.485 C 38.949 283.810,39.020 284.191,38.932 284.333 C 38.845 284.474,38.927 285.139,39.116 285.811 C 39.304 286.482,39.483 287.242,39.514 287.500 C 39.791 289.811,41.043 294.209,42.090 296.549 C 42.516 297.502,43.279 299.534,43.784 301.066 C 44.850 304.300,49.636 313.953,51.079 315.781 C 51.622 316.469,52.223 317.401,52.415 317.852 C 52.607 318.304,53.170 319.147,53.666 319.727 C 54.163 320.307,54.858 321.284,55.211 321.899 C 56.573 324.272,69.719 339.743,72.218 341.915 C 76.833 345.926,80.891 348.907,83.125 349.928 C 84.414 350.518,86.594 351.528,87.969 352.174 C 90.740 353.475,91.806 353.729,95.469 353.958 C 101.605 354.341,104.093 354.089,108.594 352.629 C 119.927 348.951,122.571 347.838,141.563 338.756 C 149.555 334.933,157.781 331.037,159.844 330.098 C 161.906 329.159,164.016 328.197,164.531 327.960 C 166.889 326.875,171.319 325.331,178.906 322.951 C 187.011 320.408,195.069 315.754,199.488 311.065 L 201.227 309.219 201.239 316.540 C 201.245 320.567,201.380 324.294,201.538 324.822 C 202.336 327.481,204.429 333.514,205.162 335.272 C 205.901 337.043,205.955 337.412,205.653 338.614 C 205.466 339.356,205.313 340.429,205.313 340.998 C 205.313 342.189,204.876 344.247,203.250 350.732 C 202.318 354.449,202.169 355.420,202.499 355.625 C 203.449 356.211,205.618 354.605,206.601 352.587 C 207.623 350.488,207.726 351.643,206.735 354.082 C 205.468 357.200,205.901 358.286,208.080 357.458 C 210.814 356.418,211.007 355.659,211.125 345.480 C 211.181 340.661,211.251 335.875,211.280 334.844 C 211.355 332.223,211.124 330.612,210.169 327.109 C 209.571 324.912,209.296 323.004,209.179 320.237 L 209.017 316.406 209.711 317.763 C 210.492 319.287,215.335 324.776,217.809 326.941 L 219.432 328.360 219.265 331.758 C 219.040 336.319,218.554 342.234,218.356 342.813 C 217.060 346.607,216.490 348.734,216.654 349.163 C 216.936 349.897,218.973 349.845,220.143 349.074 L 221.068 348.465 221.456 349.389 C 222.082 350.877,223.072 350.626,224.903 348.516 C 227.391 345.648,227.266 346.346,227.326 335.020 C 227.390 322.971,227.569 323.717,223.715 319.932 C 222.189 318.433,220.668 316.759,220.334 316.211 L 219.728 315.214 221.036 313.935 L 222.344 312.656 223.906 313.510 C 225.988 314.647,227.289 314.634,228.459 313.464 C 228.961 312.963,229.451 312.682,229.549 312.841 C 230.567 314.488,233.473 314.282,236.409 312.353 C 238.362 311.070,238.587 310.998,240.136 311.158 C 241.043 311.252,242.276 311.166,242.876 310.968 C 244.360 310.478,244.845 310.742,245.289 312.282 C 245.497 313.003,245.798 314.026,245.959 314.553 C 246.398 316.002,246.314 317.077,245.633 318.692 C 244.795 320.679,243.473 325.931,243.308 327.925 C 243.148 329.869,241.792 336.220,240.930 339.071 C 240.590 340.193,240.313 341.347,240.313 341.635 C 240.313 341.923,240.185 342.481,240.030 342.876 C 239.874 343.271,239.566 344.438,239.344 345.469 C 238.726 348.342,237.881 349.974,235.982 351.965 C 233.559 354.506,234.954 355.852,238.817 354.702 C 239.686 354.444,240.127 354.449,240.567 354.724 C 241.937 355.579,245.938 353.351,245.938 351.733 C 245.938 351.146,246.092 350.270,246.281 349.786 C 246.472 349.296,246.666 346.343,246.717 343.125 C 246.870 333.671,247.190 332.379,251.079 325.553 C 251.950 324.025,252.049 321.901,251.452 317.592 C 251.340 316.783,251.435 315.883,251.700 315.249 C 254.353 308.895,254.038 303.438,251.018 303.438 C 250.096 303.438,249.970 303.345,250.056 302.734 C 250.134 302.185,250.327 302.053,250.938 302.132 C 256.883 302.901,259.632 301.825,261.563 297.975 C 262.964 295.181,263.138 289.813,261.917 287.053 L 261.240 285.522 263.686 282.995 C 265.031 281.606,267.190 279.133,268.483 277.500 C 275.481 268.665,292.966 257.359,313.281 248.533 C 325.663 243.154,327.949 242.579,337.188 242.518 C 346.500 242.457,347.344 242.184,347.344 239.236 C 347.344 236.642,346.737 236.307,341.875 236.217 C 338.256 236.150,334.014 237.148,331.729 238.605 C 331.379 238.827,330.391 239.221,329.531 239.479 C 306.743 246.336,274.967 264.585,266.539 275.656 C 262.903 280.432,258.559 284.601,257.902 283.943 C 257.805 283.846,258.494 282.252,259.433 280.399 C 260.372 278.547,261.599 275.880,262.160 274.473 C 267.944 259.961,301.874 228.536,314.375 226.113 C 323.194 224.403,327.732 221.122,325.024 218.413 C 323.139 216.528,321.296 217.060,314.688 221.393 C 312.539 222.802,309.656 224.563,308.281 225.306 C 291.426 234.415,265.096 260.431,259.950 273.060 C 258.653 276.243,255.221 283.020,254.588 283.648 C 254.385 283.849,252.742 284.665,250.938 285.460 C 249.000 286.314,247.203 287.347,246.549 287.984 C 244.749 289.738,244.791 289.216,246.620 287.109 C 250.256 282.922,260.339 269.774,265.175 262.915 C 265.680 262.198,267.440 259.737,269.086 257.446 C 276.654 246.912,279.188 243.217,281.250 239.704 C 281.680 238.972,282.629 237.473,283.359 236.371 C 284.090 235.270,284.688 234.318,284.688 234.255 C 284.688 234.193,285.355 233.060,286.172 231.739 C 288.008 228.767,288.447 228.036,294.439 217.969 C 297.099 213.500,299.724 209.035,300.272 208.046 C 300.821 207.057,302.693 203.752,304.432 200.702 C 307.331 195.617,313.142 184.304,316.189 177.813 C 316.874 176.352,318.786 172.364,320.436 168.950 C 322.087 165.537,323.438 162.693,323.438 162.630 C 323.438 162.568,323.940 161.493,324.555 160.243 C 325.169 158.992,326.237 156.563,326.927 154.844 C 327.617 153.125,328.437 151.156,328.750 150.469 C 330.828 145.903,331.935 143.150,332.959 140.000 C 333.603 138.023,334.518 135.352,334.994 134.063 C 335.755 132.002,336.564 129.512,337.482 126.406 C 338.577 122.705,339.875 118.393,340.775 115.469 C 341.845 111.993,341.951 111.581,343.144 106.250 C 343.509 104.617,343.942 102.838,344.106 102.297 C 344.954 99.486,346.594 88.399,347.125 81.875 C 347.360 78.994,347.412 71.640,347.214 69.375 C 347.032 67.289,346.276 61.188,346.111 60.469 C 344.655 54.123,342.640 48.270,341.436 46.891 C 341.203 46.624,340.778 45.942,340.490 45.374 C 337.974 40.408,328.526 36.584,321.875 37.839 M328.720 54.984 C 330.140 55.709,332.156 57.886,334.255 60.960 L 335.781 63.197 335.761 66.208 C 335.725 71.685,333.777 75.938,331.306 75.938 C 328.035 75.938,323.531 63.369,324.653 57.369 C 325.211 54.381,326.293 53.746,328.720 54.984 M135.659 65.842 C 137.605 66.806,138.886 67.739,140.625 69.457 C 144.340 73.127,144.053 72.647,148.859 83.208 C 149.467 84.542,150.658 86.792,151.508 88.208 C 153.048 90.775,154.375 93.262,154.375 93.581 C 154.375 94.235,151.775 92.398,147.813 88.945 C 146.909 88.158,143.238 86.171,137.551 83.392 C 121.603 75.600,116.965 71.192,120.368 67.062 C 122.196 64.845,123.854 64.329,128.784 64.443 L 133.038 64.542 135.659 65.842 M314.504 68.758 C 314.723 68.979,314.815 70.559,314.762 73.185 C 314.696 76.521,314.826 78.015,315.476 81.348 C 317.178 90.075,316.551 91.337,311.764 88.830 C 304.632 85.095,303.017 77.758,307.907 71.306 C 309.767 68.851,313.263 67.502,314.504 68.758 M294.735 82.378 C 295.384 83.846,295.765 86.612,296.133 92.534 C 296.409 96.971,295.338 98.163,292.406 96.682 C 285.575 93.232,285.071 86.387,291.316 81.863 C 293.193 80.504,293.957 80.619,294.735 82.378 M128.927 84.713 C 133.174 85.487,144.831 91.434,147.868 94.375 C 152.158 98.529,150.203 100.284,141.719 99.896 C 125.983 99.177,113.318 91.948,119.619 87.281 C 120.258 86.808,121.334 85.961,122.009 85.398 C 123.396 84.243,125.309 84.054,128.927 84.713 M110.078 88.432 C 113.562 92.010,113.540 94.317,109.994 97.301 C 107.901 99.062,107.320 98.310,106.078 92.226 C 104.571 84.845,105.618 83.852,110.078 88.432 M331.467 95.756 C 334.383 98.269,329.678 112.813,325.949 112.813 C 322.460 112.813,322.764 98.499,326.308 95.932 C 328.006 94.701,330.158 94.628,331.467 95.756 M318.034 97.801 C 322.565 100.564,321.265 113.460,316.187 116.120 C 312.303 118.155,303.661 112.350,303.661 107.706 C 303.661 102.159,313.764 95.197,318.034 97.801 M163.304 101.083 C 167.540 102.853,170.757 109.042,168.632 111.335 C 166.084 114.085,161.873 112.434,159.647 107.813 C 157.574 103.510,159.709 99.581,163.304 101.083 M295.774 102.436 C 300.317 103.993,299.355 110.177,294.237 112.316 C 287.871 114.976,282.777 112.210,284.679 107.127 C 286.455 102.378,290.553 100.646,295.774 102.436 M139.688 104.532 C 146.412 106.295,150.956 109.036,156.073 114.417 C 166.394 125.272,160.834 129.873,145.959 122.787 C 142.344 121.065,140.688 120.591,132.004 118.792 C 120.979 116.509,119.177 114.894,121.148 109.064 C 123.023 103.518,129.642 101.900,139.688 104.532 M276.900 107.739 C 278.804 109.870,279.295 113.672,278.786 122.344 C 277.446 145.155,276.387 148.493,266.871 159.878 C 262.990 164.521,261.879 166.088,260.314 169.125 C 259.278 171.135,258.316 172.851,258.176 172.937 C 258.037 173.023,257.754 170.324,257.549 166.938 C 257.343 163.552,256.826 157.406,256.400 153.281 C 254.686 136.693,254.575 129.758,255.925 123.594 C 257.087 118.288,260.057 113.317,263.410 111.067 C 264.027 110.653,265.023 109.987,265.625 109.587 C 270.180 106.559,275.123 105.749,276.900 107.739 M248.197 108.114 C 251.229 110.500,248.839 117.865,244.787 118.625 C 242.383 119.076,239.375 116.438,239.375 113.880 C 239.375 110.242,245.671 106.127,248.197 108.114 M182.421 114.638 C 185.815 117.084,189.381 124.796,188.438 127.653 C 186.850 132.466,174.633 122.805,175.447 117.379 C 175.962 113.947,179.520 112.549,182.421 114.638 M222.312 116.979 C 223.580 118.688,223.040 126.335,221.546 127.829 C 219.128 130.247,211.250 125.029,211.250 121.008 C 211.250 119.900,212.366 118.806,214.678 117.650 C 218.711 115.633,221.154 115.418,222.312 116.979 M113.697 117.498 C 116.536 119.554,117.345 122.359,116.053 125.670 C 113.492 132.232,109.468 130.108,109.396 122.156 C 109.351 117.125,110.887 115.462,113.697 117.498 M327.048 120.677 C 327.840 123.173,326.614 134.832,325.409 136.264 C 321.536 140.867,318.336 137.435,320.913 131.443 C 321.587 129.876,322.799 127.047,323.608 125.156 C 325.668 120.335,326.568 119.164,327.048 120.677 M297.410 120.563 C 301.231 122.991,295.698 136.572,291.676 134.638 C 287.766 132.758,289.052 125.673,294.168 120.907 C 294.817 120.301,296.686 120.103,297.410 120.563 M243.156 124.717 C 247.167 126.009,249.759 134.161,251.246 150.156 C 251.438 152.219,251.952 157.281,252.389 161.406 C 254.120 177.739,253.366 183.724,247.668 198.906 C 245.947 203.493,238.568 226.090,237.326 230.578 C 236.157 234.803,236.270 235.018,234.722 225.603 C 234.029 221.383,232.830 214.775,232.059 210.919 C 230.954 205.393,230.617 202.945,230.466 199.375 C 230.233 193.820,229.925 190.782,228.739 182.344 C 225.573 159.822,225.196 152.173,226.740 141.769 C 228.301 131.251,236.618 122.611,243.156 124.717 M170.582 126.028 C 171.239 126.463,172.008 127.305,172.289 127.898 C 172.571 128.491,173.037 129.172,173.325 129.410 C 174.452 130.343,176.083 134.539,175.233 134.320 C 173.439 133.857,164.662 128.914,164.502 128.276 C 163.799 125.473,167.612 124.063,170.582 126.028 M143.574 126.284 C 154.101 127.378,165.537 134.023,168.794 140.938 C 169.320 142.055,170.150 143.813,170.638 144.844 C 173.682 151.275,175.638 161.597,175.118 168.488 C 174.828 172.344,174.882 172.329,171.474 169.464 C 168.466 166.935,164.346 164.559,160.291 163.016 C 158.184 162.214,155.892 161.284,151.719 159.538 C 150.344 158.963,148.375 158.257,147.344 157.970 C 124.720 151.659,116.336 124.684,137.344 125.796 C 139.063 125.887,141.866 126.106,143.574 126.284 M210.020 132.006 C 218.744 133.563,220.102 137.785,223.612 174.297 C 223.922 177.519,223.261 176.610,221.694 171.658 C 220.895 169.132,219.680 165.722,218.995 164.080 C 218.309 162.437,217.493 160.320,217.180 159.375 C 216.372 156.933,215.277 154.158,213.420 149.844 C 212.532 147.781,211.203 144.688,210.467 142.969 C 209.730 141.250,208.340 138.180,207.377 136.147 C 204.957 131.040,204.921 131.096,210.020 132.006 M199.739 137.393 C 200.343 137.937,201.315 140.288,202.044 142.969 C 203.266 147.463,204.515 151.149,205.049 151.839 C 205.583 152.530,205.843 153.750,205.456 153.750 C 203.482 153.750,193.770 145.487,192.826 143.004 C 191.498 139.511,197.070 134.988,199.739 137.393 M179.232 137.536 C 180.786 137.927,183.375 140.025,189.494 145.852 C 191.535 147.797,195.473 151.133,198.244 153.267 C 210.991 163.082,215.337 168.356,216.204 175.063 C 216.388 176.489,216.757 179.365,217.024 181.455 C 217.448 184.783,217.970 186.638,221.244 196.455 C 226.263 211.503,226.373 212.008,226.411 220.000 C 226.441 226.358,226.450 226.439,227.605 230.781 C 229.766 238.908,229.902 248.928,227.954 256.438 C 226.782 260.956,226.776 260.956,223.673 256.578 C 219.932 251.301,213.727 244.343,207.394 238.324 C 201.692 232.904,201.790 233.067,196.259 219.838 C 195.611 218.289,194.582 216.029,193.972 214.817 C 192.855 212.600,189.848 204.713,188.680 200.938 C 188.334 199.820,187.094 196.430,185.923 193.404 C 183.425 186.944,182.145 181.988,181.250 175.313 C 180.892 172.648,180.308 168.289,179.950 165.625 C 179.593 162.961,178.840 158.953,178.278 156.719 C 175.467 145.540,174.906 140.409,176.254 138.193 C 176.928 137.086,177.203 137.025,179.232 137.536 M306.662 138.103 C 310.420 139.532,308.439 153.357,304.016 156.560 C 298.505 160.552,295.979 154.274,299.070 144.268 C 300.268 140.388,304.224 137.176,306.662 138.103 M112.241 148.917 C 117.438 150.011,117.413 151.002,112.071 155.582 C 108.158 158.937,108.606 158.983,106.312 154.987 C 102.500 148.349,103.700 147.121,112.241 148.917 M281.492 150.078 C 282.984 151.909,285.416 163.161,286.163 171.684 C 287.405 185.872,283.234 207.631,276.325 223.000 C 275.638 224.530,274.560 227.029,273.929 228.554 C 269.145 240.133,261.393 254.526,248.325 276.094 C 240.636 288.783,241.195 288.165,240.888 284.304 C 240.775 282.882,240.450 277.992,240.166 273.438 C 239.656 265.265,239.049 257.505,238.443 251.406 C 237.526 242.184,237.461 242.616,241.706 229.688 C 242.637 226.852,244.472 220.880,245.785 216.418 C 247.098 211.956,248.941 206.276,249.881 203.795 C 250.821 201.315,252.004 197.761,252.511 195.898 C 253.390 192.663,253.900 191.340,257.428 183.125 C 259.133 179.156,261.404 174.665,262.800 172.500 C 263.299 171.727,264.122 170.391,264.628 169.531 C 266.622 166.149,270.506 161.240,276.681 154.297 C 280.985 149.458,280.986 149.458,281.492 150.078 M130.414 155.463 C 131.938 155.786,134.266 156.807,138.558 159.036 C 144.038 161.882,144.954 162.252,148.944 163.231 C 153.684 164.393,157.821 166.013,160.781 167.865 C 166.712 171.574,171.498 175.687,173.634 178.906 C 174.205 179.766,175.311 181.358,176.094 182.446 C 178.053 185.167,183.301 195.931,185.948 202.656 C 186.896 205.065,188.097 208.010,191.106 215.313 C 192.204 217.977,193.304 220.719,193.550 221.406 C 193.796 222.094,194.433 223.570,194.967 224.688 C 196.375 227.636,196.107 229.241,194.502 227.468 C 194.175 227.107,193.486 226.595,192.969 226.331 C 192.453 226.067,191.595 225.484,191.062 225.035 C 190.529 224.586,189.685 223.972,189.187 223.672 C 188.250 223.105,187.206 222.383,184.531 220.451 C 180.792 217.749,177.402 215.741,173.906 214.155 C 171.844 213.219,169.714 212.180,169.174 211.847 C 167.897 211.058,165.145 210.075,157.500 207.674 C 152.153 205.995,148.906 205.429,142.969 205.140 C 135.218 204.764,125.765 200.719,121.470 195.942 C 116.805 190.754,114.712 177.743,116.671 166.103 C 118.214 156.930,122.323 153.748,130.414 155.463 M104.269 171.955 C 110.274 180.963,107.117 189.196,100.386 182.080 C 98.243 179.814,98.149 177.460,100.139 175.895 C 100.552 175.570,101.113 174.632,101.386 173.810 C 102.377 170.828,103.176 170.314,104.269 171.955 M298.429 182.494 C 300.531 183.991,300.806 186.442,299.222 189.567 C 298.169 191.646,293.061 198.125,292.475 198.125 C 291.973 198.125,292.173 192.765,292.784 189.844 C 294.222 182.965,295.943 180.724,298.429 182.494 M93.518 204.071 C 96.888 205.031,96.504 208.278,92.874 209.515 C 87.448 211.364,81.778 206.149,86.719 203.854 C 87.761 203.370,91.471 203.489,93.518 204.071 M119.988 207.524 C 125.191 208.414,131.648 213.814,139.379 223.739 C 142.629 227.911,143.989 230.000,145.294 232.825 C 145.495 233.261,146.295 234.456,147.070 235.481 C 150.900 240.540,151.944 244.375,149.491 244.375 C 147.420 244.375,134.659 240.579,131.250 238.949 C 130.305 238.497,127.563 237.361,125.156 236.425 C 122.750 235.489,119.234 234.069,117.344 233.270 C 115.453 232.471,112.666 231.335,111.150 230.745 C 109.634 230.156,108.087 229.473,107.712 229.229 C 107.338 228.985,105.625 228.421,103.907 227.975 C 98.152 226.483,95.621 224.932,95.628 222.902 C 95.633 221.363,99.080 215.322,99.959 215.310 C 100.068 215.308,100.957 214.640,101.935 213.825 C 105.518 210.840,108.536 209.082,113.125 207.308 C 114.256 206.871,116.607 206.945,119.988 207.524 M149.198 212.505 C 152.996 214.386,152.664 218.559,148.365 222.965 C 145.321 226.085,143.932 225.864,142.510 222.031 C 141.453 219.185,142.006 214.442,143.542 213.167 C 145.084 211.889,147.407 211.617,149.198 212.505 M75.534 216.328 C 78.689 219.779,76.752 224.907,71.722 226.421 C 68.799 227.301,68.286 226.473,69.410 222.690 C 71.030 217.245,73.769 214.398,75.534 216.328 M167.680 222.522 C 174.678 223.207,181.691 226.085,188.540 231.083 C 191.214 233.035,199.215 240.851,200.718 242.981 C 204.978 249.017,205.926 250.608,207.929 255.079 C 210.674 261.208,212.740 268.328,211.989 269.071 C 211.708 269.348,208.783 267.518,206.984 265.938 C 203.954 263.277,190.308 257.660,175.156 252.836 C 160.397 248.137,155.324 244.422,151.867 235.781 C 148.769 228.038,151.472 223.975,160.606 222.645 C 164.126 222.133,163.773 222.139,167.680 222.522 M94.442 229.549 C 101.885 230.575,106.633 232.331,124.531 240.680 C 131.993 244.160,133.036 245.168,132.170 248.059 C 129.703 256.294,110.176 259.659,90.625 255.218 C 89.508 254.964,87.750 254.665,86.719 254.554 C 85.108 254.381,82.362 253.890,73.145 252.131 C 67.646 251.081,68.642 244.505,75.576 236.079 C 81.223 229.215,84.300 228.150,94.442 229.549 M65.887 238.315 C 66.709 240.702,65.821 245.760,64.491 246.265 C 61.241 247.501,59.840 243.414,62.026 239.073 C 63.650 235.847,64.950 235.592,65.887 238.315 M210.058 245.570 C 214.108 248.794,221.250 257.123,221.250 258.624 C 221.250 258.803,221.718 259.503,222.291 260.178 C 225.416 263.867,229.950 272.932,232.312 280.215 C 234.318 286.401,234.645 285.928,228.906 285.160 C 227.016 284.907,223.746 284.697,221.641 284.694 L 217.813 284.688 217.804 283.516 C 217.717 270.979,214.327 257.918,208.459 247.508 C 206.001 243.149,206.403 242.661,210.058 245.570 M143.466 248.097 C 144.739 248.426,146.744 249.129,147.920 249.660 C 149.096 250.191,150.198 250.625,150.368 250.625 C 150.538 250.625,151.755 251.058,153.073 251.587 C 155.111 252.406,160.014 253.745,172.500 256.896 C 173.789 257.221,176.883 257.972,179.375 258.565 C 202.272 264.008,212.498 271.411,214.233 283.799 L 214.437 285.255 212.609 285.630 C 211.604 285.837,209.938 286.361,208.906 286.795 L 207.031 287.584 194.688 287.637 C 187.898 287.667,176.648 287.872,169.688 288.093 C 145.194 288.872,130.511 287.988,117.843 284.973 C 106.450 282.261,100.634 280.051,97.615 277.286 C 94.554 274.482,97.821 269.056,103.797 267.020 C 105.705 266.370,106.973 265.206,108.208 262.969 L 109.243 261.094 113.137 260.891 C 119.831 260.543,123.732 259.725,128.340 257.703 C 133.869 255.278,134.731 254.453,136.066 250.321 C 137.030 247.333,138.635 246.851,143.466 248.097 M53.703 250.419 C 55.668 252.510,54.709 257.411,51.868 259.802 C 50.652 260.825,50.544 260.823,49.361 259.766 C 47.325 257.947,47.937 254.273,50.762 251.357 C 52.598 249.461,52.756 249.411,53.703 250.419 M70.888 256.860 C 72.548 257.195,77.703 257.900,82.344 258.425 C 106.271 261.134,106.251 261.121,96.319 267.447 C 87.229 273.236,67.824 277.732,62.775 275.218 C 59.769 273.721,58.183 266.518,59.837 261.875 C 61.538 257.102,64.788 255.627,70.888 256.860 M54.605 276.301 C 59.693 278.419,60.694 281.776,56.901 283.999 C 52.772 286.419,49.707 284.364,49.437 278.995 C 49.225 274.782,49.994 274.381,54.605 276.301 M92.965 276.697 C 95.131 277.602,96.000 279.817,94.840 281.474 C 94.285 282.265,90.125 285.688,89.033 286.251 C 88.620 286.464,87.930 286.963,87.500 287.360 C 85.857 288.877,74.703 294.027,72.264 294.394 C 66.411 295.277,63.614 293.402,63.206 288.323 C 62.746 282.597,66.878 280.125,81.250 277.524 C 83.227 277.167,85.547 276.668,86.406 276.416 C 88.185 275.894,91.370 276.031,92.965 276.697 M102.578 285.159 C 104.426 285.587,107.449 286.287,109.297 286.714 C 111.145 287.141,114.906 287.859,117.656 288.311 C 128.258 290.051,127.777 290.722,108.750 300.761 C 100.253 305.243,100.509 305.082,92.344 311.085 C 83.736 317.413,80.613 317.459,74.649 311.344 C 69.415 305.977,69.805 302.168,76.007 298.096 C 77.575 297.067,79.501 295.755,80.288 295.181 C 81.075 294.607,82.703 293.624,83.906 292.997 C 85.109 292.369,86.727 291.448,87.500 290.949 C 88.273 290.451,89.610 289.629,90.471 289.124 C 91.332 288.619,92.987 287.343,94.149 286.290 C 96.676 284.000,97.246 283.924,102.578 285.159 M202.756 291.372 C 202.811 291.640,202.529 292.180,202.131 292.571 C 201.450 293.239,200.306 293.652,189.844 297.013 C 187.953 297.620,184.227 298.547,181.563 299.073 C 178.898 299.599,175.338 300.379,173.650 300.807 C 168.704 302.060,147.946 306.245,143.594 306.867 C 132.730 308.418,126.451 310.822,113.949 318.216 C 98.701 327.234,93.050 329.381,87.852 328.135 C 81.432 326.594,83.229 320.693,92.139 314.054 C 93.401 313.113,94.882 311.969,95.430 311.512 C 95.978 311.054,97.055 310.337,97.823 309.919 C 98.590 309.500,100.135 308.592,101.256 307.901 C 103.263 306.662,117.936 299.478,122.500 297.499 C 123.789 296.941,125.406 296.162,126.094 295.770 C 127.213 295.130,130.297 294.183,135.313 292.938 C 137.881 292.300,143.001 291.646,148.438 291.260 C 158.852 290.521,202.601 290.611,202.756 291.372 M61.275 297.513 C 64.813 299.318,62.971 305.625,58.906 305.625 C 54.727 305.625,53.543 299.766,57.263 297.498 C 58.561 296.707,59.703 296.711,61.275 297.513 M197.328 297.770 C 196.960 298.105,192.480 301.184,191.127 302.031 C 190.579 302.375,189.635 303.040,189.029 303.509 C 187.097 305.004,169.691 313.284,160.781 316.946 C 159.922 317.299,158.445 317.909,157.500 318.301 C 156.555 318.692,154.938 319.252,153.906 319.544 C 152.875 319.836,149.148 321.168,145.625 322.504 C 142.102 323.839,137.742 325.381,135.938 325.931 C 132.314 327.033,127.196 328.883,125.856 329.574 C 125.382 329.819,124.187 330.286,123.200 330.613 C 122.213 330.940,119.156 332.148,116.406 333.298 C 109.567 336.159,107.673 336.657,104.548 336.416 C 99.174 336.003,96.393 333.539,98.114 330.716 C 98.755 329.664,99.156 329.375,104.219 326.311 C 105.938 325.271,108.117 323.925,109.063 323.320 C 110.008 322.716,113.664 320.864,117.188 319.204 C 120.711 317.545,123.746 316.063,123.931 315.912 C 125.130 314.934,140.407 310.511,145.938 309.541 C 147.570 309.254,154.039 307.763,160.313 306.226 C 196.627 297.334,198.203 296.974,197.328 297.770 M202.813 299.229 C 202.813 301.445,196.351 309.426,193.281 311.001 C 192.594 311.354,191.244 312.231,190.282 312.950 C 189.320 313.668,186.859 315.005,184.813 315.920 C 182.768 316.835,180.391 317.973,179.531 318.450 C 178.672 318.927,176.422 319.760,174.531 320.301 C 172.641 320.843,169.898 321.786,168.438 322.397 C 166.977 323.008,164.094 324.108,162.031 324.842 C 157.562 326.432,155.352 327.412,141.250 334.062 C 135.320 336.857,129.273 339.700,127.813 340.379 C 126.352 341.058,124.114 342.109,122.839 342.716 C 113.598 347.115,102.905 345.781,108.203 340.889 C 109.987 339.242,121.288 333.952,128.125 331.564 C 129.242 331.174,130.789 330.537,131.563 330.149 C 132.336 329.761,134.586 328.853,136.563 328.131 C 138.539 327.409,140.947 326.480,141.914 326.065 C 142.881 325.651,143.836 325.313,144.036 325.313 C 144.236 325.313,144.922 325.048,145.559 324.725 C 146.197 324.401,147.773 323.849,149.063 323.496 C 160.859 320.272,184.497 310.889,192.208 306.370 C 194.312 305.136,201.179 300.075,201.835 299.274 C 202.371 298.620,202.813 298.600,202.813 299.229 M209.471 310.500 C 209.438 310.998,209.301 312.250,209.167 313.281 L 208.922 315.156 208.758 313.125 C 208.557 310.637,208.710 309.308,209.178 309.471 C 209.372 309.538,209.504 310.001,209.471 310.500 M74.180 318.197 C 78.378 319.455,79.748 324.558,76.466 326.709 C 74.172 328.211,70.300 321.903,71.532 318.672 C 71.898 317.713,72.314 317.638,74.180 318.197 M223.230 327.208 C 222.985 327.452,222.789 327.256,222.529 326.508 L 222.167 325.469 222.868 326.168 C 223.373 326.672,223.474 326.963,223.230 327.208 M92.080 337.966 C 95.370 338.943,97.672 341.412,96.316 342.509 C 93.668 344.654,86.250 341.905,86.250 338.779 C 86.250 337.593,89.363 337.159,92.080 337.966 " stroke="none" fill="#040404" fill-rule="evenodd"></path></g></svg>